<?xml version="1.0" encoding="UTF-8"?>
<mxfile host="app.diagrams.net" agent="Mozilla/5.0 (Windows NT 10.0; Win64; x64) AppleWebKit/537.36 (KHTML, like Gecko) Chrome/139.0.0.0 Safari/537.36" version="28.0.9">
  <diagram name="Office 2nd Floor" id="BWm1buOFTXtam4xC32OV">
    <mxGraphModel dx="2353" dy="2650" grid="1" gridSize="10" guides="1" tooltips="1" connect="1" arrows="1" fold="1" page="1" pageScale="1" pageWidth="850" pageHeight="1100" math="0" shadow="0">
      <root>
        <mxCell id="0" />
        <mxCell id="1" parent="0" />
        <mxCell id="WuOIyLYNfGmpn-H2fmUs-61" value="" style="whiteSpace=wrap;html=1;movable=0;resizable=0;rotatable=0;deletable=0;editable=0;locked=1;connectable=0;" parent="1" vertex="1">
          <mxGeometry x="10" y="1120" width="1684" height="1060" as="geometry" />
        </mxCell>
        <mxCell id="WuOIyLYNfGmpn-H2fmUs-46" value="" style="rounded=0;whiteSpace=wrap;html=1;movable=1;resizable=1;rotatable=1;deletable=1;editable=1;locked=0;connectable=1;" parent="1" vertex="1">
          <mxGeometry x="862" y="280" width="833" height="810" as="geometry" />
        </mxCell>
        <mxCell id="WuOIyLYNfGmpn-H2fmUs-49" value="" style="rounded=0;whiteSpace=wrap;html=1;movable=0;resizable=0;rotatable=0;deletable=0;editable=0;locked=1;connectable=0;" parent="1" vertex="1">
          <mxGeometry x="897" y="363" width="130" height="20" as="geometry" />
        </mxCell>
        <mxCell id="c4z20yVUbwWjeVvLzU7N-100" value="" style="rounded=0;whiteSpace=wrap;html=1;rotation=-90;movable=0;resizable=0;rotatable=0;deletable=0;editable=0;locked=1;connectable=0;" parent="1" vertex="1">
          <mxGeometry x="487.79" y="178.44" width="499.34" height="225.01" as="geometry" />
        </mxCell>
        <mxCell id="c4z20yVUbwWjeVvLzU7N-97" value="&lt;h1 style=&quot;margin-top: 0px;&quot;&gt;TOOLS&lt;/h1&gt;&lt;p&gt;Router : Mikrotik RB7590GR3 (300-500 MBps traffic)&lt;/p&gt;&lt;p&gt;Switch Core :&amp;nbsp;MikroTik CRS310-8G+2S+IN&lt;/p&gt;&lt;p&gt;Distribution Switch LT.1 :&amp;nbsp;MikroTik CSS326-24G-2S+RM&lt;/p&gt;&lt;p&gt;&lt;span style=&quot;background-color: transparent; color: light-dark(rgb(0, 0, 0), rgb(255, 255, 255));&quot;&gt;Distribution Switch&lt;/span&gt;&amp;nbsp;LT.2 :&amp;nbsp;MikroTik CSS326-24G-2S+RM&lt;/p&gt;&lt;p&gt;Smart&amp;nbsp;&lt;span style=&quot;background-color: transparent; color: light-dark(rgb(0, 0, 0), rgb(255, 255, 255));&quot;&gt;Switch LT.1 :&amp;nbsp;&lt;/span&gt;&lt;span style=&quot;background-color: transparent; color: light-dark(rgb(0, 0, 0), rgb(255, 255, 255));&quot;&gt;TP-Link TL-SG2218 JetStream&lt;/span&gt;&lt;/p&gt;&lt;p&gt;Smart&amp;nbsp;&lt;span style=&quot;background-color: transparent; color: light-dark(rgb(0, 0, 0), rgb(255, 255, 255));&quot;&gt;Switch&lt;/span&gt;&lt;span style=&quot;background-color: transparent; color: light-dark(rgb(0, 0, 0), rgb(255, 255, 255));&quot;&gt;&amp;nbsp;LT.2 :&amp;nbsp;&lt;/span&gt;&lt;span style=&quot;background-color: transparent; color: light-dark(rgb(0, 0, 0), rgb(255, 255, 255));&quot;&gt;TP-Link TL-SG2218 JetStream&lt;/span&gt;&lt;/p&gt;&lt;p&gt;&lt;span style=&quot;background-color: transparent; color: light-dark(rgb(0, 0, 0), rgb(255, 255, 255));&quot;&gt;AP1 &amp;amp; AP2 :&lt;/span&gt;&lt;span style=&quot;background-color: transparent; color: light-dark(rgb(0, 0, 0), rgb(255, 255, 255));&quot;&gt;&amp;nbsp;&lt;/span&gt;ASUS ZenWiFi AX (XT8)&amp;nbsp;[SOHO]&lt;/p&gt;&lt;p&gt;AP3 :&amp;nbsp;RUIJIE EW3000GX PRO&amp;nbsp;[Enterprise]&lt;/p&gt;&lt;p&gt;AP4 :&amp;nbsp;nokia wifi beacon 1 router&amp;nbsp;[SOHO]&lt;br&gt;&lt;br&gt;*Note: It is highly recommended to use enterprise-grade access points (APs). Enterprise APs support VLAN configuration, allowing you to separate SSIDs for Guest and Staff networks effectively.&lt;/p&gt;" style="text;html=1;whiteSpace=wrap;overflow=hidden;rounded=0;movable=0;resizable=0;rotatable=0;deletable=0;editable=0;locked=1;connectable=0;" parent="1" vertex="1">
          <mxGeometry x="626.93" y="43" width="223.07" height="488" as="geometry" />
        </mxCell>
        <mxCell id="c4z20yVUbwWjeVvLzU7N-12" value="" style="group;movable=0;resizable=0;rotatable=0;deletable=0;editable=0;locked=1;connectable=0;" parent="1" vertex="1" connectable="0">
          <mxGeometry x="387.01" y="82" width="60" height="68.61000000000001" as="geometry" />
        </mxCell>
        <mxCell id="c4z20yVUbwWjeVvLzU7N-10" value="" style="shape=mxgraph.networks2.icon;aspect=fixed;fillColor=#EDEDED;strokeColor=#000000;gradientColor=#5B6163;network2IconShadow=1;network2bgFillColor=none;network2Icon=mxgraph.networks2.internet;network2IconXOffset=0.0012;network2IconYOffset=0.0035;network2IconW=0.9677;network2IconH=0.7722;movable=0;resizable=0;rotatable=0;deletable=0;editable=0;locked=1;connectable=0;" parent="c4z20yVUbwWjeVvLzU7N-12" vertex="1">
          <mxGeometry x="7.610000000000014" y="30" width="48.385" height="38.61" as="geometry" />
        </mxCell>
        <mxCell id="c4z20yVUbwWjeVvLzU7N-11" value="Internet" style="text;strokeColor=none;fillColor=none;html=1;align=center;verticalAlign=middle;whiteSpace=wrap;rounded=0;fontSize=16;movable=0;resizable=0;rotatable=0;deletable=0;editable=0;locked=1;connectable=0;" parent="c4z20yVUbwWjeVvLzU7N-12" vertex="1">
          <mxGeometry width="60" height="30" as="geometry" />
        </mxCell>
        <mxCell id="c4z20yVUbwWjeVvLzU7N-24" value="" style="group;movable=0;resizable=0;rotatable=0;deletable=0;editable=0;locked=1;connectable=0;" parent="1" vertex="1" connectable="0">
          <mxGeometry x="393" y="306" width="60" height="62.315" as="geometry" />
        </mxCell>
        <mxCell id="c4z20yVUbwWjeVvLzU7N-22" value="" style="fillColorStyles=neutralFill;neutralFill=#9DA6A8;shape=mxgraph.networks2.icon;aspect=fixed;fillColor=#EDEDED;strokeColor=#000000;gradientColor=#5B6163;network2IconShadow=1;network2bgFillColor=none;network2Icon=mxgraph.networks2.router;network2IconXOffset=0.0001;network2IconYOffset=-0.1142;network2IconW=1;network2IconH=0.5485;movable=0;resizable=0;rotatable=0;deletable=0;editable=0;locked=1;connectable=0;" parent="c4z20yVUbwWjeVvLzU7N-24" vertex="1">
          <mxGeometry x="5.000000000000057" y="34.889999999999986" width="50" height="27.425" as="geometry" />
        </mxCell>
        <mxCell id="c4z20yVUbwWjeVvLzU7N-23" value="ROUTER" style="text;strokeColor=none;fillColor=none;html=1;align=center;verticalAlign=middle;whiteSpace=wrap;rounded=0;fontSize=16;movable=0;resizable=0;rotatable=0;deletable=0;editable=0;locked=1;connectable=0;" parent="c4z20yVUbwWjeVvLzU7N-24" vertex="1">
          <mxGeometry width="60" height="30" as="geometry" />
        </mxCell>
        <mxCell id="c4z20yVUbwWjeVvLzU7N-41" style="edgeStyle=none;curved=1;rounded=0;orthogonalLoop=1;jettySize=auto;html=1;fontSize=12;startSize=8;endSize=8;movable=0;resizable=0;rotatable=0;deletable=0;editable=0;locked=1;connectable=0;" parent="c4z20yVUbwWjeVvLzU7N-24" edge="1">
          <mxGeometry relative="1" as="geometry">
            <mxPoint x="-51.69999999999999" y="-42.99500000000006" as="sourcePoint" />
            <mxPoint x="-2" y="47" as="targetPoint" />
            <Array as="points">
              <mxPoint x="-51.69999999999999" y="10.689999999999998" />
            </Array>
          </mxGeometry>
        </mxCell>
        <mxCell id="c4z20yVUbwWjeVvLzU7N-36" style="edgeStyle=none;curved=1;rounded=0;orthogonalLoop=1;jettySize=auto;html=1;fontSize=12;startSize=8;endSize=8;movable=0;resizable=0;rotatable=0;deletable=0;editable=0;locked=1;connectable=0;" parent="1" source="c4z20yVUbwWjeVvLzU7N-10" edge="1">
          <mxGeometry relative="1" as="geometry">
            <mxPoint x="381" y="243" as="targetPoint" />
            <Array as="points">
              <mxPoint x="413" y="213" />
            </Array>
          </mxGeometry>
        </mxCell>
        <mxCell id="c4z20yVUbwWjeVvLzU7N-37" style="edgeStyle=none;curved=1;rounded=0;orthogonalLoop=1;jettySize=auto;html=1;fontSize=12;startSize=8;endSize=8;movable=0;resizable=0;rotatable=0;deletable=0;editable=0;locked=1;connectable=0;" parent="1" source="c4z20yVUbwWjeVvLzU7N-10" edge="1">
          <mxGeometry relative="1" as="geometry">
            <mxPoint x="461" y="243" as="targetPoint" />
            <Array as="points">
              <mxPoint x="423" y="213" />
            </Array>
          </mxGeometry>
        </mxCell>
        <mxCell id="c4z20yVUbwWjeVvLzU7N-42" style="edgeStyle=none;curved=1;rounded=0;orthogonalLoop=1;jettySize=auto;html=1;fontSize=12;startSize=8;endSize=8;movable=0;resizable=0;rotatable=0;deletable=0;editable=0;locked=1;connectable=0;" parent="1" edge="1">
          <mxGeometry relative="1" as="geometry">
            <mxPoint x="451" y="353" as="targetPoint" />
            <mxPoint x="501" y="263" as="sourcePoint" />
            <Array as="points">
              <mxPoint x="493" y="313" />
            </Array>
          </mxGeometry>
        </mxCell>
        <mxCell id="c4z20yVUbwWjeVvLzU7N-52" value="" style="group;movable=0;resizable=0;rotatable=0;deletable=0;editable=0;locked=1;connectable=0;" parent="1" vertex="1" connectable="0">
          <mxGeometry x="533" y="396" width="50.004999999999995" height="64.88" as="geometry" />
        </mxCell>
        <mxCell id="c4z20yVUbwWjeVvLzU7N-2" value="" style="fillColorStyles=neutralFill;neutralFill=#9DA6A8;shape=mxgraph.networks2.icon;aspect=fixed;fillColor=#EDEDED;strokeColor=#000000;gradientColor=#5B6163;network2IconShadow=1;network2bgFillColor=none;network2Icon=mxgraph.networks2.server;network2IconW=1.0001;network2IconH=0.5812;movable=0;resizable=0;rotatable=0;deletable=0;editable=0;locked=1;connectable=0;" parent="c4z20yVUbwWjeVvLzU7N-52" vertex="1">
          <mxGeometry y="35.81999999999999" width="50.005" height="29.060000000000002" as="geometry" />
        </mxCell>
        <mxCell id="c4z20yVUbwWjeVvLzU7N-33" value="Server&lt;br&gt;Backup" style="text;strokeColor=none;fillColor=none;html=1;align=center;verticalAlign=middle;whiteSpace=wrap;rounded=0;fontSize=16;movable=0;resizable=0;rotatable=0;deletable=0;editable=0;locked=1;connectable=0;" parent="c4z20yVUbwWjeVvLzU7N-52" vertex="1">
          <mxGeometry width="50" height="20" as="geometry" />
        </mxCell>
        <mxCell id="WuOIyLYNfGmpn-H2fmUs-32" style="edgeStyle=none;curved=1;rounded=0;orthogonalLoop=1;jettySize=auto;html=1;fontSize=12;startSize=8;endSize=8;strokeColor=#2BC4E0;movable=0;resizable=0;rotatable=0;deletable=0;editable=0;locked=1;connectable=0;" parent="1" source="c4z20yVUbwWjeVvLzU7N-8" edge="1">
          <mxGeometry relative="1" as="geometry">
            <mxPoint x="430" y="595" as="targetPoint" />
          </mxGeometry>
        </mxCell>
        <mxCell id="WuOIyLYNfGmpn-H2fmUs-33" value="Ether 6" style="edgeLabel;html=1;align=center;verticalAlign=middle;resizable=0;points=[];fontSize=12;movable=0;rotatable=0;deletable=0;editable=0;locked=1;connectable=0;" parent="WuOIyLYNfGmpn-H2fmUs-32" connectable="0" vertex="1">
          <mxGeometry x="0.0236" y="-1" relative="1" as="geometry">
            <mxPoint as="offset" />
          </mxGeometry>
        </mxCell>
        <mxCell id="c4z20yVUbwWjeVvLzU7N-8" value="" style="fillColorStyles=neutralFill;neutralFill=#9DA6A8;shape=mxgraph.networks2.icon;aspect=fixed;fillColor=#000000;strokeColor=#FFFFFF;gradientColor=#02E88C;network2IconShadow=1;network2bgFillColor=none;network2Icon=mxgraph.networks2.hub;network2IconXOffset=0.0001;network2IconYOffset=0.0129;network2IconW=1;network2IconH=0.2938;movable=0;resizable=0;rotatable=0;deletable=0;editable=0;locked=1;connectable=0;" parent="1" vertex="1">
          <mxGeometry x="403" y="439" width="50" height="14.69" as="geometry" />
        </mxCell>
        <mxCell id="c4z20yVUbwWjeVvLzU7N-28" value="Core Switch" style="text;strokeColor=none;fillColor=none;html=1;align=center;verticalAlign=middle;whiteSpace=wrap;rounded=0;fontSize=16;movable=0;resizable=0;rotatable=0;deletable=0;editable=0;locked=1;connectable=0;" parent="1" vertex="1">
          <mxGeometry x="382" y="415.82" width="90" height="20" as="geometry" />
        </mxCell>
        <mxCell id="c4z20yVUbwWjeVvLzU7N-63" value="" style="fontColor=#0066CC;verticalAlign=top;verticalLabelPosition=bottom;labelPosition=center;align=center;html=1;outlineConnect=0;fillColor=#CCCCCC;strokeColor=#6881B3;gradientColor=none;gradientDirection=north;strokeWidth=2;shape=mxgraph.networks.switch;movable=0;resizable=0;rotatable=0;deletable=0;editable=0;locked=1;connectable=0;" parent="1" vertex="1">
          <mxGeometry x="217" y="593" width="78" height="20" as="geometry" />
        </mxCell>
        <mxCell id="c4z20yVUbwWjeVvLzU7N-123" style="edgeStyle=orthogonalEdgeStyle;rounded=0;orthogonalLoop=1;jettySize=auto;html=1;fontSize=12;startSize=8;endSize=8;strokeColor=#E83202;movable=0;resizable=0;rotatable=0;deletable=0;editable=0;locked=1;connectable=0;" parent="1" source="c4z20yVUbwWjeVvLzU7N-64" target="c4z20yVUbwWjeVvLzU7N-119" edge="1">
          <mxGeometry relative="1" as="geometry">
            <Array as="points">
              <mxPoint x="593" y="733" />
              <mxPoint x="550" y="733" />
            </Array>
          </mxGeometry>
        </mxCell>
        <mxCell id="c4z20yVUbwWjeVvLzU7N-64" value="" style="fontColor=#0066CC;verticalAlign=top;verticalLabelPosition=bottom;labelPosition=center;align=center;html=1;outlineConnect=0;fillColor=#CCCCCC;strokeColor=#6881B3;gradientColor=none;gradientDirection=north;strokeWidth=2;shape=mxgraph.networks.switch;movable=0;resizable=0;rotatable=0;deletable=0;editable=0;locked=1;connectable=0;" parent="1" vertex="1">
          <mxGeometry x="567.01" y="593" width="78" height="20" as="geometry" />
        </mxCell>
        <mxCell id="c4z20yVUbwWjeVvLzU7N-68" value="&lt;div&gt;Distribution&lt;/div&gt;&lt;div&gt;Switch&amp;nbsp;&lt;span style=&quot;background-color: transparent; color: light-dark(rgb(0, 0, 0), rgb(255, 255, 255));&quot;&gt;LT.2&lt;/span&gt;&lt;/div&gt;" style="text;strokeColor=none;fillColor=none;html=1;align=center;verticalAlign=middle;whiteSpace=wrap;rounded=0;fontSize=16;movable=0;resizable=0;rotatable=0;deletable=0;editable=0;locked=1;connectable=0;" parent="1" vertex="1">
          <mxGeometry x="576.01" y="551" width="60" height="30" as="geometry" />
        </mxCell>
        <mxCell id="c4z20yVUbwWjeVvLzU7N-69" value="Distribution&lt;div&gt;Switch&amp;nbsp;&lt;span style=&quot;background-color: transparent; color: light-dark(rgb(0, 0, 0), rgb(255, 255, 255));&quot;&gt;LT.1&lt;/span&gt;&lt;/div&gt;" style="text;strokeColor=none;fillColor=none;html=1;align=center;verticalAlign=middle;whiteSpace=wrap;rounded=0;fontSize=16;movable=0;resizable=0;rotatable=0;deletable=0;editable=0;locked=1;connectable=0;" parent="1" vertex="1">
          <mxGeometry x="226" y="551" width="60" height="30" as="geometry" />
        </mxCell>
        <mxCell id="c4z20yVUbwWjeVvLzU7N-74" value="SFP+" style="text;strokeColor=none;fillColor=none;html=1;align=center;verticalAlign=middle;whiteSpace=wrap;rounded=0;fontSize=16;movable=0;resizable=0;rotatable=0;deletable=0;editable=0;locked=1;connectable=0;" parent="1" vertex="1">
          <mxGeometry x="334" y="441" width="60" height="30" as="geometry" />
        </mxCell>
        <mxCell id="c4z20yVUbwWjeVvLzU7N-75" value="SFP+" style="text;strokeColor=none;fillColor=none;html=1;align=center;verticalAlign=middle;whiteSpace=wrap;rounded=0;fontSize=16;movable=0;resizable=0;rotatable=0;deletable=0;editable=0;locked=1;connectable=0;" parent="1" vertex="1">
          <mxGeometry x="465" y="440.69" width="60" height="30" as="geometry" />
        </mxCell>
        <mxCell id="c4z20yVUbwWjeVvLzU7N-6" value="&#xa;&#xa;&#xa;&#xa;&#xa;&#xa;&#xa;USER&#xa;PC &amp; LP" style="shape=mxgraph.networks2.icon;aspect=fixed;fillColor=#EDEDED;strokeColor=#6881B3;gradientColor=#5B6163;network2IconShadow=1;network2bgFillColor=none;network2Icon=mxgraph.networks2.lan;network2IconYOffset=0.0558;network2IconW=1.0834;network2IconH=0.7564;movable=0;resizable=0;rotatable=0;deletable=0;editable=0;locked=1;connectable=0;" parent="1" vertex="1">
          <mxGeometry x="137.00000000000006" y="855" width="94.9" height="66.26" as="geometry" />
        </mxCell>
        <mxCell id="c4z20yVUbwWjeVvLzU7N-72" value="&#xa;&#xa;&#xa;&#xa;&#xa;&#xa;&#xa;USER&#xa;PC &amp; LP" style="shape=mxgraph.networks2.icon;aspect=fixed;fillColor=#EDEDED;strokeColor=#6881B3;gradientColor=#5B6163;network2IconShadow=1;network2bgFillColor=none;network2Icon=mxgraph.networks2.lan;network2IconYOffset=0.0558;network2IconW=1.0834;network2IconH=0.7564;movable=0;resizable=0;rotatable=0;deletable=0;editable=0;locked=1;connectable=0;" parent="1" vertex="1">
          <mxGeometry x="632" y="855" width="94.9" height="66.26" as="geometry" />
        </mxCell>
        <mxCell id="c4z20yVUbwWjeVvLzU7N-82" style="edgeStyle=orthogonalEdgeStyle;rounded=0;orthogonalLoop=1;jettySize=auto;html=1;exitX=0.1;exitY=1;exitDx=0;exitDy=0;exitPerimeter=0;entryX=0.486;entryY=-0.017;entryDx=0;entryDy=0;entryPerimeter=0;fontSize=12;startSize=8;endSize=8;strokeColor=#5C4BF2;movable=0;resizable=0;rotatable=0;deletable=0;editable=0;locked=1;connectable=0;" parent="1" source="c4z20yVUbwWjeVvLzU7N-63" target="c4z20yVUbwWjeVvLzU7N-101" edge="1">
          <mxGeometry relative="1" as="geometry">
            <mxPoint x="142.0000000000001" y="663" as="targetPoint" />
            <Array as="points">
              <mxPoint x="225" y="632" />
              <mxPoint x="142" y="632" />
            </Array>
          </mxGeometry>
        </mxCell>
        <mxCell id="WuOIyLYNfGmpn-H2fmUs-20" value="Port 7" style="edgeLabel;html=1;align=center;verticalAlign=middle;resizable=0;points=[];fontSize=12;movable=0;rotatable=0;deletable=0;editable=0;locked=1;connectable=0;" parent="c4z20yVUbwWjeVvLzU7N-82" connectable="0" vertex="1">
          <mxGeometry x="-0.5165" relative="1" as="geometry">
            <mxPoint x="-7" as="offset" />
          </mxGeometry>
        </mxCell>
        <mxCell id="c4z20yVUbwWjeVvLzU7N-83" style="edgeStyle=orthogonalEdgeStyle;rounded=0;orthogonalLoop=1;jettySize=auto;html=1;exitX=0.9;exitY=1;exitDx=0;exitDy=0;exitPerimeter=0;fontSize=12;startSize=8;endSize=8;entryX=0.5;entryY=-0.058;entryDx=0;entryDy=0;entryPerimeter=0;strokeColor=#9E0017;movable=0;resizable=0;rotatable=0;deletable=0;editable=0;locked=1;connectable=0;" parent="1" source="c4z20yVUbwWjeVvLzU7N-63" edge="1">
          <mxGeometry relative="1" as="geometry">
            <mxPoint x="325" y="661.4093499999999" as="targetPoint" />
          </mxGeometry>
        </mxCell>
        <mxCell id="WuOIyLYNfGmpn-H2fmUs-21" value="Port 8" style="edgeLabel;html=1;align=center;verticalAlign=middle;resizable=0;points=[];fontSize=12;movable=0;rotatable=0;deletable=0;editable=0;locked=1;connectable=0;" parent="c4z20yVUbwWjeVvLzU7N-83" connectable="0" vertex="1">
          <mxGeometry x="-0.3004" y="-3" relative="1" as="geometry">
            <mxPoint x="11" y="-2" as="offset" />
          </mxGeometry>
        </mxCell>
        <mxCell id="c4z20yVUbwWjeVvLzU7N-84" style="edgeStyle=orthogonalEdgeStyle;rounded=0;orthogonalLoop=1;jettySize=auto;html=1;exitX=0.5;exitY=1;exitDx=0;exitDy=0;exitPerimeter=0;entryX=0.505;entryY=0.015;entryDx=0;entryDy=0;entryPerimeter=0;fontSize=12;startSize=8;endSize=8;strokeColor=#9E0017;movable=0;resizable=0;rotatable=0;deletable=0;editable=0;locked=1;connectable=0;" parent="1" source="c4z20yVUbwWjeVvLzU7N-63" target="c4z20yVUbwWjeVvLzU7N-6" edge="1">
          <mxGeometry relative="1" as="geometry">
            <Array as="points">
              <mxPoint x="256" y="765" />
              <mxPoint x="185" y="765" />
            </Array>
          </mxGeometry>
        </mxCell>
        <mxCell id="WuOIyLYNfGmpn-H2fmUs-22" value="Port 9-24" style="edgeLabel;html=1;align=center;verticalAlign=middle;resizable=0;points=[];fontSize=12;movable=0;rotatable=0;deletable=0;editable=0;locked=1;connectable=0;" parent="c4z20yVUbwWjeVvLzU7N-84" connectable="0" vertex="1">
          <mxGeometry x="0.3052" relative="1" as="geometry">
            <mxPoint x="14" as="offset" />
          </mxGeometry>
        </mxCell>
        <mxCell id="c4z20yVUbwWjeVvLzU7N-85" style="edgeStyle=orthogonalEdgeStyle;rounded=0;orthogonalLoop=1;jettySize=auto;html=1;exitX=0.1;exitY=1;exitDx=0;exitDy=0;exitPerimeter=0;entryX=0.56;entryY=0;entryDx=0;entryDy=0;entryPerimeter=0;fontSize=12;startSize=8;endSize=8;strokeColor=#9E0017;movable=0;resizable=0;rotatable=0;deletable=0;editable=0;locked=1;connectable=0;" parent="1" source="c4z20yVUbwWjeVvLzU7N-64" edge="1">
          <mxGeometry relative="1" as="geometry">
            <mxPoint x="543" y="663" as="targetPoint" />
          </mxGeometry>
        </mxCell>
        <mxCell id="c4z20yVUbwWjeVvLzU7N-86" style="edgeStyle=orthogonalEdgeStyle;rounded=0;orthogonalLoop=1;jettySize=auto;html=1;exitX=0.9;exitY=1;exitDx=0;exitDy=0;exitPerimeter=0;entryX=0.543;entryY=0.023;entryDx=0;entryDy=0;entryPerimeter=0;fontSize=12;startSize=8;endSize=8;strokeColor=#9E0017;strokeColor=#5C4BF2;movable=0;resizable=0;rotatable=0;deletable=0;editable=0;locked=1;connectable=0;" parent="1" source="c4z20yVUbwWjeVvLzU7N-64" edge="1">
          <mxGeometry relative="1" as="geometry">
            <mxPoint x="724.15" y="663.6307750000001" as="targetPoint" />
          </mxGeometry>
        </mxCell>
        <mxCell id="c4z20yVUbwWjeVvLzU7N-87" style="edgeStyle=orthogonalEdgeStyle;rounded=0;orthogonalLoop=1;jettySize=auto;html=1;exitX=0.5;exitY=1;exitDx=0;exitDy=0;exitPerimeter=0;entryX=0.516;entryY=0.004;entryDx=0;entryDy=0;entryPerimeter=0;fontSize=12;startSize=8;endSize=8;strokeColor=#9E0017;movable=0;resizable=0;rotatable=0;deletable=0;editable=0;locked=1;connectable=0;" parent="1" source="c4z20yVUbwWjeVvLzU7N-64" target="c4z20yVUbwWjeVvLzU7N-72" edge="1">
          <mxGeometry relative="1" as="geometry">
            <Array as="points">
              <mxPoint x="606" y="765" />
              <mxPoint x="681" y="765" />
            </Array>
          </mxGeometry>
        </mxCell>
        <mxCell id="c4z20yVUbwWjeVvLzU7N-94" value="" style="endArrow=classic;startArrow=classic;html=1;rounded=0;fontSize=12;startSize=8;endSize=8;curved=1;entryX=0.002;entryY=0.515;entryDx=0;entryDy=0;entryPerimeter=0;exitX=1.013;exitY=0.502;exitDx=0;exitDy=0;exitPerimeter=0;strokeColor=#00B833;movable=0;resizable=0;rotatable=0;deletable=0;editable=0;locked=1;connectable=0;" parent="1" source="c4z20yVUbwWjeVvLzU7N-8" target="c4z20yVUbwWjeVvLzU7N-2" edge="1">
          <mxGeometry width="50" height="50" relative="1" as="geometry">
            <mxPoint x="451" y="553" as="sourcePoint" />
            <mxPoint x="501" y="503" as="targetPoint" />
          </mxGeometry>
        </mxCell>
        <mxCell id="c4z20yVUbwWjeVvLzU7N-95" value="" style="endArrow=classic;startArrow=classic;html=1;rounded=0;fontSize=12;startSize=8;endSize=8;curved=1;entryX=0.002;entryY=0.515;entryDx=0;entryDy=0;entryPerimeter=0;exitX=1.013;exitY=0.502;exitDx=0;exitDy=0;exitPerimeter=0;strokeColor=#00B833;movable=0;resizable=0;rotatable=0;deletable=0;editable=0;locked=1;connectable=0;" parent="1" edge="1">
          <mxGeometry width="50" height="50" relative="1" as="geometry">
            <mxPoint x="324" y="445.85" as="sourcePoint" />
            <mxPoint x="403" y="446.85" as="targetPoint" />
          </mxGeometry>
        </mxCell>
        <mxCell id="c4z20yVUbwWjeVvLzU7N-96" value="" style="group;movable=0;resizable=0;rotatable=0;deletable=0;editable=0;locked=1;connectable=0;" parent="1" vertex="1" connectable="0">
          <mxGeometry x="268" y="393" width="60" height="67.88" as="geometry" />
        </mxCell>
        <mxCell id="c4z20yVUbwWjeVvLzU7N-53" value="" style="fillColorStyles=neutralFill;neutralFill=#9DA6A8;shape=mxgraph.networks2.icon;aspect=fixed;fillColor=#EDEDED;strokeColor=#000000;gradientColor=#5B6163;network2IconShadow=1;network2bgFillColor=none;network2Icon=mxgraph.networks2.server;network2IconW=1.0001;network2IconH=0.5812;movable=0;resizable=0;rotatable=0;deletable=0;editable=0;locked=1;connectable=0;" parent="c4z20yVUbwWjeVvLzU7N-96" vertex="1">
          <mxGeometry x="5" y="38.81999999999999" width="50.005" height="29.060000000000002" as="geometry" />
        </mxCell>
        <mxCell id="c4z20yVUbwWjeVvLzU7N-57" value="NAS" style="text;strokeColor=none;fillColor=none;html=1;align=center;verticalAlign=middle;whiteSpace=wrap;rounded=0;fontSize=16;movable=0;resizable=0;rotatable=0;deletable=0;editable=0;locked=1;connectable=0;" parent="c4z20yVUbwWjeVvLzU7N-96" vertex="1">
          <mxGeometry width="60" height="30" as="geometry" />
        </mxCell>
        <mxCell id="c4z20yVUbwWjeVvLzU7N-98" value="" style="endArrow=classic;startArrow=classic;html=1;rounded=0;fontSize=12;startSize=8;endSize=8;curved=1;entryX=0.5;entryY=1.057;entryDx=0;entryDy=0;entryPerimeter=0;exitX=0.453;exitY=-0.008;exitDx=0;exitDy=0;exitPerimeter=0;strokeColor=#E83202;movable=0;resizable=0;rotatable=0;deletable=0;editable=0;locked=1;connectable=0;" parent="1" source="c4z20yVUbwWjeVvLzU7N-28" target="c4z20yVUbwWjeVvLzU7N-22" edge="1">
          <mxGeometry width="50" height="50" relative="1" as="geometry">
            <mxPoint x="421" y="443" as="sourcePoint" />
            <mxPoint x="471" y="393" as="targetPoint" />
          </mxGeometry>
        </mxCell>
        <mxCell id="c4z20yVUbwWjeVvLzU7N-101" value="AP 1" style="points=[[0.03,0.36,0],[0.18,0,0],[0.5,0.34,0],[0.82,0,0],[0.97,0.36,0],[1,0.67,0],[0.975,0.975,0],[0.5,1,0],[0.025,0.975,0],[0,0.67,0]];verticalLabelPosition=bottom;sketch=0;html=1;verticalAlign=top;aspect=fixed;align=center;pointerEvents=1;shape=mxgraph.cisco19.wireless_access_point;fillColor=#005073;strokeColor=none;movable=0;resizable=0;rotatable=0;deletable=0;editable=0;locked=1;connectable=0;" parent="1" vertex="1">
          <mxGeometry x="123" y="663" width="38.94" height="38.94" as="geometry" />
        </mxCell>
        <mxCell id="c4z20yVUbwWjeVvLzU7N-106" value="AP 2" style="points=[[0.03,0.36,0],[0.18,0,0],[0.5,0.34,0],[0.82,0,0],[0.97,0.36,0],[1,0.67,0],[0.975,0.975,0],[0.5,1,0],[0.025,0.975,0],[0,0.67,0]];verticalLabelPosition=bottom;sketch=0;html=1;verticalAlign=top;aspect=fixed;align=center;pointerEvents=1;shape=mxgraph.cisco19.wireless_access_point;fillColor=#005073;strokeColor=none;movable=0;resizable=0;rotatable=0;deletable=0;editable=0;locked=1;connectable=0;" parent="1" vertex="1">
          <mxGeometry x="306.06" y="660.4300000000001" width="38.94" height="38.94" as="geometry" />
        </mxCell>
        <mxCell id="c4z20yVUbwWjeVvLzU7N-107" value="AP 3" style="points=[[0.03,0.36,0],[0.18,0,0],[0.5,0.34,0],[0.82,0,0],[0.97,0.36,0],[1,0.67,0],[0.975,0.975,0],[0.5,1,0],[0.025,0.975,0],[0,0.67,0]];verticalLabelPosition=bottom;sketch=0;html=1;verticalAlign=top;aspect=fixed;align=center;pointerEvents=1;shape=mxgraph.cisco19.wireless_access_point;fillColor=#005073;strokeColor=none;movable=0;resizable=0;rotatable=0;deletable=0;editable=0;locked=1;connectable=0;" parent="1" vertex="1">
          <mxGeometry x="524" y="662.4300000000001" width="38.94" height="38.94" as="geometry" />
        </mxCell>
        <mxCell id="c4z20yVUbwWjeVvLzU7N-108" value="AP 4" style="points=[[0.03,0.36,0],[0.18,0,0],[0.5,0.34,0],[0.82,0,0],[0.97,0.36,0],[1,0.67,0],[0.975,0.975,0],[0.5,1,0],[0.025,0.975,0],[0,0.67,0]];verticalLabelPosition=bottom;sketch=0;html=1;verticalAlign=top;aspect=fixed;align=center;pointerEvents=1;shape=mxgraph.cisco19.wireless_access_point;fillColor=#005073;strokeColor=none;movable=0;resizable=0;rotatable=0;deletable=0;editable=0;locked=1;connectable=0;" parent="1" vertex="1">
          <mxGeometry x="706" y="663" width="38.94" height="38.94" as="geometry" />
        </mxCell>
        <mxCell id="c4z20yVUbwWjeVvLzU7N-111" value="" style="fontColor=#0066CC;verticalAlign=top;verticalLabelPosition=bottom;labelPosition=center;align=center;html=1;outlineConnect=0;fillColor=#CCCCCC;strokeColor=#6881B3;gradientColor=none;gradientDirection=north;strokeWidth=2;shape=mxgraph.networks.switch;movable=0;resizable=0;rotatable=0;deletable=0;editable=0;locked=1;connectable=0;" parent="1" vertex="1">
          <mxGeometry x="27" y="799.26" width="78" height="20" as="geometry" />
        </mxCell>
        <mxCell id="c4z20yVUbwWjeVvLzU7N-116" value="" style="fontColor=#0066CC;verticalAlign=top;verticalLabelPosition=bottom;labelPosition=center;align=center;html=1;outlineConnect=0;fillColor=#CCCCCC;strokeColor=#6881B3;gradientColor=none;gradientDirection=north;strokeWidth=2;shape=mxgraph.networks.switch;movable=0;resizable=0;rotatable=0;deletable=0;editable=0;locked=1;connectable=0;" parent="1" vertex="1">
          <mxGeometry x="267" y="799" width="78" height="20" as="geometry" />
        </mxCell>
        <mxCell id="c4z20yVUbwWjeVvLzU7N-117" style="edgeStyle=orthogonalEdgeStyle;rounded=0;orthogonalLoop=1;jettySize=auto;html=1;fontSize=12;startSize=8;endSize=8;strokeColor=#E83202;movable=0;resizable=0;rotatable=0;deletable=0;editable=0;locked=1;connectable=0;" parent="1" source="c4z20yVUbwWjeVvLzU7N-63" target="c4z20yVUbwWjeVvLzU7N-111" edge="1">
          <mxGeometry relative="1" as="geometry">
            <mxPoint x="78" y="765" as="targetPoint" />
            <Array as="points">
              <mxPoint x="238" y="731" />
              <mxPoint x="66" y="731" />
            </Array>
          </mxGeometry>
        </mxCell>
        <mxCell id="WuOIyLYNfGmpn-H2fmUs-18" value="Port 3-4" style="edgeLabel;html=1;align=center;verticalAlign=middle;resizable=0;points=[];fontSize=12;movable=0;rotatable=0;deletable=0;editable=0;locked=1;connectable=0;" parent="c4z20yVUbwWjeVvLzU7N-117" connectable="0" vertex="1">
          <mxGeometry x="-0.253" y="2" relative="1" as="geometry">
            <mxPoint x="-12" y="-2" as="offset" />
          </mxGeometry>
        </mxCell>
        <mxCell id="c4z20yVUbwWjeVvLzU7N-118" style="edgeStyle=orthogonalEdgeStyle;rounded=0;orthogonalLoop=1;jettySize=auto;html=1;fontSize=12;startSize=8;endSize=8;entryX=0.5;entryY=0;entryDx=0;entryDy=0;entryPerimeter=0;strokeColor=#E83202;movable=0;resizable=0;rotatable=0;deletable=0;editable=0;locked=1;connectable=0;" parent="1" edge="1">
          <mxGeometry relative="1" as="geometry">
            <mxPoint x="316.97" y="799" as="targetPoint" />
            <Array as="points">
              <mxPoint x="266.97" y="731" />
              <mxPoint x="316.97" y="731" />
            </Array>
            <mxPoint x="266.9985714285714" y="613" as="sourcePoint" />
          </mxGeometry>
        </mxCell>
        <mxCell id="WuOIyLYNfGmpn-H2fmUs-19" value="Port 5-6" style="edgeLabel;html=1;align=center;verticalAlign=middle;resizable=0;points=[];fontSize=12;movable=0;rotatable=0;deletable=0;editable=0;locked=1;connectable=0;" parent="c4z20yVUbwWjeVvLzU7N-118" connectable="0" vertex="1">
          <mxGeometry x="0.0851" y="1" relative="1" as="geometry">
            <mxPoint x="12" as="offset" />
          </mxGeometry>
        </mxCell>
        <mxCell id="c4z20yVUbwWjeVvLzU7N-119" value="" style="fontColor=#0066CC;verticalAlign=top;verticalLabelPosition=bottom;labelPosition=center;align=center;html=1;outlineConnect=0;fillColor=#CCCCCC;strokeColor=#6881B3;gradientColor=none;gradientDirection=north;strokeWidth=2;shape=mxgraph.networks.switch;movable=0;resizable=0;rotatable=0;deletable=0;editable=0;locked=1;connectable=0;" parent="1" vertex="1">
          <mxGeometry x="530" y="799" width="78" height="20" as="geometry" />
        </mxCell>
        <mxCell id="c4z20yVUbwWjeVvLzU7N-120" value="" style="fontColor=#0066CC;verticalAlign=top;verticalLabelPosition=bottom;labelPosition=center;align=center;html=1;outlineConnect=0;fillColor=#CCCCCC;strokeColor=#6881B3;gradientColor=none;gradientDirection=north;strokeWidth=2;shape=mxgraph.networks.switch;movable=0;resizable=0;rotatable=0;deletable=0;editable=0;locked=1;connectable=0;" parent="1" vertex="1">
          <mxGeometry x="733" y="799" width="78" height="20" as="geometry" />
        </mxCell>
        <mxCell id="c4z20yVUbwWjeVvLzU7N-122" style="edgeStyle=none;curved=1;rounded=0;orthogonalLoop=1;jettySize=auto;html=1;exitX=0.5;exitY=0;exitDx=0;exitDy=0;exitPerimeter=0;fontSize=12;startSize=8;endSize=8;movable=0;resizable=0;rotatable=0;deletable=0;editable=0;locked=1;connectable=0;" parent="1" source="c4z20yVUbwWjeVvLzU7N-120" target="c4z20yVUbwWjeVvLzU7N-120" edge="1">
          <mxGeometry relative="1" as="geometry" />
        </mxCell>
        <mxCell id="c4z20yVUbwWjeVvLzU7N-124" style="edgeStyle=orthogonalEdgeStyle;rounded=0;orthogonalLoop=1;jettySize=auto;html=1;entryX=0.5;entryY=0;entryDx=0;entryDy=0;entryPerimeter=0;fontSize=12;startSize=8;endSize=8;strokeColor=#E83202;movable=0;resizable=0;rotatable=0;deletable=0;editable=0;locked=1;connectable=0;" parent="1" target="c4z20yVUbwWjeVvLzU7N-120" edge="1">
          <mxGeometry relative="1" as="geometry">
            <Array as="points">
              <mxPoint x="623" y="613" />
              <mxPoint x="623" y="733" />
              <mxPoint x="772" y="733" />
            </Array>
            <mxPoint x="623" y="613" as="sourcePoint" />
          </mxGeometry>
        </mxCell>
        <mxCell id="c4z20yVUbwWjeVvLzU7N-125" value="Smart&amp;nbsp;&lt;span style=&quot;background-color: transparent; color: light-dark(rgb(0, 0, 0), rgb(255, 255, 255));&quot;&gt;Switch&lt;/span&gt;&lt;div&gt;&lt;span style=&quot;background-color: transparent; color: light-dark(rgb(0, 0, 0), rgb(255, 255, 255));&quot;&gt;LT.1 A&lt;/span&gt;&lt;/div&gt;" style="text;strokeColor=none;fillColor=none;html=1;align=center;verticalAlign=middle;whiteSpace=wrap;rounded=0;fontSize=16;movable=0;resizable=0;rotatable=0;deletable=0;editable=0;locked=1;connectable=0;" parent="1" vertex="1">
          <mxGeometry x="36" y="825" width="60" height="30" as="geometry" />
        </mxCell>
        <mxCell id="c4z20yVUbwWjeVvLzU7N-126" value="Smart&amp;nbsp;&lt;span style=&quot;color: light-dark(rgb(0, 0, 0), rgb(255, 255, 255)); background-color: transparent;&quot;&gt;Switch&lt;/span&gt;&lt;div&gt;&lt;span style=&quot;background-color: transparent; color: light-dark(rgb(0, 0, 0), rgb(255, 255, 255));&quot;&gt;LT.1 B&lt;/span&gt;&lt;/div&gt;" style="text;strokeColor=none;fillColor=none;html=1;align=center;verticalAlign=middle;whiteSpace=wrap;rounded=0;fontSize=16;movable=0;resizable=0;rotatable=0;deletable=0;editable=0;locked=1;connectable=0;" parent="1" vertex="1">
          <mxGeometry x="276" y="825" width="60" height="30" as="geometry" />
        </mxCell>
        <mxCell id="c4z20yVUbwWjeVvLzU7N-127" value="Smart&amp;nbsp;&lt;span style=&quot;color: light-dark(rgb(0, 0, 0), rgb(255, 255, 255)); background-color: transparent;&quot;&gt;Switch&lt;/span&gt;&lt;div&gt;&lt;span style=&quot;background-color: transparent; color: light-dark(rgb(0, 0, 0), rgb(255, 255, 255));&quot;&gt;LT.2 A&lt;/span&gt;&lt;/div&gt;" style="text;strokeColor=none;fillColor=none;html=1;align=center;verticalAlign=middle;whiteSpace=wrap;rounded=0;fontSize=16;movable=0;resizable=0;rotatable=0;deletable=0;editable=0;locked=1;connectable=0;" parent="1" vertex="1">
          <mxGeometry x="540.1" y="826" width="60" height="30" as="geometry" />
        </mxCell>
        <mxCell id="c4z20yVUbwWjeVvLzU7N-128" value="Smart&amp;nbsp;&lt;span style=&quot;color: light-dark(rgb(0, 0, 0), rgb(255, 255, 255)); background-color: transparent;&quot;&gt;Switch&lt;/span&gt;&lt;div&gt;&lt;span style=&quot;background-color: transparent; color: light-dark(rgb(0, 0, 0), rgb(255, 255, 255));&quot;&gt;LT.2 B&lt;/span&gt;&lt;/div&gt;" style="text;strokeColor=none;fillColor=none;html=1;align=center;verticalAlign=middle;whiteSpace=wrap;rounded=0;fontSize=16;movable=0;resizable=0;rotatable=0;deletable=0;editable=0;locked=1;connectable=0;" parent="1" vertex="1">
          <mxGeometry x="745" y="825" width="60" height="30" as="geometry" />
        </mxCell>
        <mxCell id="oO6m2sZ0845tZ0FAEgG3-1" value="NETWORK TOPOLOGY&amp;nbsp;&lt;div&gt;OFFICE BUILDING 2nd Floor&lt;/div&gt;" style="text;html=1;align=center;verticalAlign=middle;whiteSpace=wrap;rounded=0;movable=0;resizable=0;rotatable=0;deletable=0;editable=0;locked=1;connectable=0;" parent="1" vertex="1">
          <mxGeometry x="238.01" y="16" width="358" height="52" as="geometry" />
        </mxCell>
        <mxCell id="wgvURcrzdyZ4Qupp1lnJ-5" value="&lt;h1 style=&quot;margin-top: 0px;&quot;&gt;VLAN Mapping&lt;/h1&gt;&lt;div&gt;&lt;table&gt;&lt;thead&gt;&lt;tr&gt;&lt;th&gt;VLAN ID&lt;/th&gt;&lt;th&gt;VLAN Name&lt;/th&gt;&lt;th&gt;Description / Purpose&lt;/th&gt;&lt;th&gt;Location / Scope&lt;span style=&quot;white-space: pre;&quot;&gt;&#x9;&lt;/span&gt;&lt;span style=&quot;white-space: pre;&quot;&gt;&#x9;&lt;span style=&quot;white-space: pre;&quot;&gt;&#x9;&lt;/span&gt;IP Subnet&lt;span style=&quot;white-space: pre;&quot;&gt;&#x9;&lt;/span&gt;&lt;/span&gt;&lt;/th&gt;&lt;/tr&gt;&lt;/thead&gt;&lt;tbody&gt;&lt;tr&gt;&lt;td&gt;10&lt;/td&gt;&lt;td&gt;Management&lt;/td&gt;&lt;td&gt;Network equipment (router, switches, APs)&lt;/td&gt;&lt;td&gt;Core + Access Switches&lt;span style=&quot;white-space: pre;&quot;&gt;&#x9;&lt;/span&gt;&lt;span style=&quot;white-space: pre;&quot;&gt;&#x9;&lt;/span&gt;192.168.10.0/24&lt;/td&gt;&lt;/tr&gt;&lt;tr&gt;&lt;td&gt;20&lt;/td&gt;&lt;td&gt;Server&lt;/td&gt;&lt;td&gt;NAS, Backup Server&lt;/td&gt;&lt;td&gt;Core&lt;span style=&quot;white-space: pre;&quot;&gt;&#x9;&lt;/span&gt;&lt;span style=&quot;white-space: pre;&quot;&gt;&#x9;&lt;/span&gt;&lt;span style=&quot;white-space: pre;&quot;&gt;&#x9;&lt;/span&gt;&lt;span style=&quot;white-space: pre;&quot;&gt;&#x9;&lt;/span&gt;&lt;span style=&quot;white-space: pre;&quot;&gt;&#x9;&lt;/span&gt;192.168.20.0/24&lt;/td&gt;&lt;/tr&gt;&lt;tr&gt;&lt;td&gt;30&lt;/td&gt;&lt;td&gt;Staff&lt;/td&gt;&lt;td&gt;User PCs, Laptops&lt;/td&gt;&lt;td&gt;LT.1, LT.2 (Switch Access)&lt;span style=&quot;white-space: pre;&quot;&gt;&#x9;&lt;/span&gt;192.168.30.0/24&lt;/td&gt;&lt;/tr&gt;&lt;tr&gt;&lt;td&gt;40&lt;/td&gt;&lt;td&gt;Guest&lt;/td&gt;&lt;td&gt;Wi-Fi Guests (Internet only)&lt;/td&gt;&lt;td&gt;AP VLAN only&lt;span style=&quot;white-space: pre;&quot;&gt;&#x9;&lt;/span&gt;&lt;span style=&quot;white-space: pre;&quot;&gt;&#x9;&lt;/span&gt;&lt;span style=&quot;white-space: pre;&quot;&gt;&#x9;&lt;/span&gt;&lt;span style=&quot;white-space: pre;&quot;&gt;&#x9;&lt;/span&gt;192.168.40.0/24&lt;/td&gt;&lt;/tr&gt;&lt;tr&gt;&lt;td&gt;50&lt;/td&gt;&lt;td&gt;IoT&lt;/td&gt;&lt;td&gt;Printers, CCTV, smart devices&lt;/td&gt;&lt;td&gt;Shared, Isolated if needed&lt;span style=&quot;white-space: pre;&quot;&gt;&#x9;&lt;/span&gt;192.168.50.0/24&lt;/td&gt;&lt;/tr&gt;&lt;tr&gt;&lt;td&gt;99&lt;/td&gt;&lt;td&gt;Native / Trunk&lt;/td&gt;&lt;td&gt;For inter-switch trunk links (untagged)&lt;/td&gt;&lt;td&gt;Between switches/router&lt;/td&gt;&lt;/tr&gt;&lt;/tbody&gt;&lt;/table&gt;&lt;/div&gt;&lt;div&gt;&lt;/div&gt;" style="text;html=1;whiteSpace=wrap;overflow=hidden;rounded=0;movable=0;resizable=0;rotatable=0;deletable=0;editable=0;locked=1;connectable=0;" parent="1" vertex="1">
          <mxGeometry x="862" y="38.239999999999945" width="687.75" height="190" as="geometry" />
        </mxCell>
        <mxCell id="wgvURcrzdyZ4Qupp1lnJ-7" value="&#xa;&#xa;&#xa;&#xa;&#xa;&#xa;&#xa;USER&#xa;PC &amp; LP" style="shape=mxgraph.networks2.icon;aspect=fixed;fillColor=#EDEDED;strokeColor=#6881B3;gradientColor=#5B6163;network2IconShadow=1;network2bgFillColor=none;network2Icon=mxgraph.networks2.lan;network2IconYOffset=0.0558;network2IconW=1.0834;network2IconH=0.7564;movable=0;resizable=0;rotatable=0;deletable=0;editable=0;locked=1;connectable=0;" parent="1" vertex="1">
          <mxGeometry x="18.55000000000001" y="921.26" width="94.9" height="66.26" as="geometry" />
        </mxCell>
        <mxCell id="wgvURcrzdyZ4Qupp1lnJ-8" value="&#xa;&#xa;&#xa;&#xa;&#xa;&#xa;&#xa;USER&#xa;PC &amp; LP" style="shape=mxgraph.networks2.icon;aspect=fixed;fillColor=#EDEDED;strokeColor=#6881B3;gradientColor=#5B6163;network2IconShadow=1;network2bgFillColor=none;network2Icon=mxgraph.networks2.lan;network2IconYOffset=0.0558;network2IconW=1.0834;network2IconH=0.7564;movable=0;resizable=0;rotatable=0;deletable=0;editable=0;locked=1;connectable=0;" parent="1" vertex="1">
          <mxGeometry x="267" y="921.26" width="94.9" height="66.26" as="geometry" />
        </mxCell>
        <mxCell id="wgvURcrzdyZ4Qupp1lnJ-9" value="&#xa;&#xa;&#xa;&#xa;&#xa;&#xa;&#xa;USER&#xa;PC &amp; LP" style="shape=mxgraph.networks2.icon;aspect=fixed;fillColor=#EDEDED;strokeColor=#6881B3;gradientColor=#5B6163;network2IconShadow=1;network2bgFillColor=none;network2Icon=mxgraph.networks2.lan;network2IconYOffset=0.0558;network2IconW=1.0834;network2IconH=0.7564;movable=0;resizable=0;rotatable=0;deletable=0;editable=0;locked=1;connectable=0;" parent="1" vertex="1">
          <mxGeometry x="527" y="921.26" width="94.9" height="66.26" as="geometry" />
        </mxCell>
        <mxCell id="wgvURcrzdyZ4Qupp1lnJ-10" value="&#xa;&#xa;&#xa;&#xa;&#xa;&#xa;&#xa;USER&#xa;PC &amp; LP" style="shape=mxgraph.networks2.icon;aspect=fixed;fillColor=#EDEDED;strokeColor=#6881B3;gradientColor=#5B6163;network2IconShadow=1;network2bgFillColor=none;network2Icon=mxgraph.networks2.lan;network2IconYOffset=0.0558;network2IconW=1.0834;network2IconH=0.7564;movable=0;resizable=0;rotatable=0;deletable=0;editable=0;locked=1;connectable=0;" parent="1" vertex="1">
          <mxGeometry x="745" y="921.26" width="94.9" height="66.26" as="geometry" />
        </mxCell>
        <mxCell id="wgvURcrzdyZ4Qupp1lnJ-11" style="edgeStyle=none;curved=1;rounded=0;orthogonalLoop=1;jettySize=auto;html=1;exitX=0.5;exitY=1;exitDx=0;exitDy=0;exitPerimeter=0;entryX=0.511;entryY=-0.013;entryDx=0;entryDy=0;entryPerimeter=0;fontSize=12;startSize=8;endSize=8;strokeColor=#9E0017;movable=0;resizable=0;rotatable=0;deletable=0;editable=0;locked=1;connectable=0;" parent="1" source="c4z20yVUbwWjeVvLzU7N-111" target="wgvURcrzdyZ4Qupp1lnJ-7" edge="1">
          <mxGeometry relative="1" as="geometry" />
        </mxCell>
        <mxCell id="wgvURcrzdyZ4Qupp1lnJ-12" style="edgeStyle=none;curved=1;rounded=0;orthogonalLoop=1;jettySize=auto;html=1;exitX=0.5;exitY=1;exitDx=0;exitDy=0;exitPerimeter=0;entryX=0.425;entryY=-0.015;entryDx=0;entryDy=0;entryPerimeter=0;fontSize=12;startSize=8;endSize=8;strokeColor=#9E0017;movable=0;resizable=0;rotatable=0;deletable=0;editable=0;locked=1;connectable=0;" parent="1" source="c4z20yVUbwWjeVvLzU7N-116" target="wgvURcrzdyZ4Qupp1lnJ-8" edge="1">
          <mxGeometry relative="1" as="geometry" />
        </mxCell>
        <mxCell id="wgvURcrzdyZ4Qupp1lnJ-13" style="edgeStyle=none;curved=1;rounded=0;orthogonalLoop=1;jettySize=auto;html=1;exitX=0.5;exitY=1;exitDx=0;exitDy=0;exitPerimeter=0;entryX=0.442;entryY=-0.008;entryDx=0;entryDy=0;entryPerimeter=0;fontSize=12;startSize=8;endSize=8;strokeColor=#9E0017;movable=0;resizable=0;rotatable=0;deletable=0;editable=0;locked=1;connectable=0;" parent="1" source="c4z20yVUbwWjeVvLzU7N-119" target="wgvURcrzdyZ4Qupp1lnJ-9" edge="1">
          <mxGeometry relative="1" as="geometry" />
        </mxCell>
        <mxCell id="wgvURcrzdyZ4Qupp1lnJ-14" style="edgeStyle=none;curved=1;rounded=0;orthogonalLoop=1;jettySize=auto;html=1;exitX=0.5;exitY=1;exitDx=0;exitDy=0;exitPerimeter=0;entryX=0.277;entryY=0.014;entryDx=0;entryDy=0;entryPerimeter=0;fontSize=12;startSize=8;endSize=8;strokeColor=#9E0017;movable=0;resizable=0;rotatable=0;deletable=0;editable=0;locked=1;connectable=0;" parent="1" source="c4z20yVUbwWjeVvLzU7N-120" target="wgvURcrzdyZ4Qupp1lnJ-10" edge="1">
          <mxGeometry relative="1" as="geometry" />
        </mxCell>
        <mxCell id="wgvURcrzdyZ4Qupp1lnJ-18" value="" style="endArrow=classic;startArrow=classic;html=1;rounded=0;fontSize=12;startSize=8;endSize=8;curved=1;exitX=0.95;exitY=0.05;exitDx=0;exitDy=0;exitPerimeter=0;strokeColor=#E83202;movable=0;resizable=0;rotatable=0;deletable=0;editable=0;locked=1;connectable=0;" parent="1" source="c4z20yVUbwWjeVvLzU7N-63" edge="1">
          <mxGeometry width="50" height="50" relative="1" as="geometry">
            <mxPoint x="320" y="605" as="sourcePoint" />
            <mxPoint x="413" y="455" as="targetPoint" />
          </mxGeometry>
        </mxCell>
        <mxCell id="wgvURcrzdyZ4Qupp1lnJ-19" value="" style="endArrow=classic;startArrow=classic;html=1;rounded=0;fontSize=12;startSize=8;endSize=8;curved=1;entryX=0.832;entryY=0.901;entryDx=0;entryDy=0;entryPerimeter=0;exitX=0.05;exitY=0.05;exitDx=0;exitDy=0;exitPerimeter=0;strokeColor=#E83202;movable=0;resizable=0;rotatable=0;deletable=0;editable=0;locked=1;connectable=0;" parent="1" source="c4z20yVUbwWjeVvLzU7N-64" target="c4z20yVUbwWjeVvLzU7N-8" edge="1">
          <mxGeometry width="50" height="50" relative="1" as="geometry">
            <mxPoint x="320" y="605" as="sourcePoint" />
            <mxPoint x="370" y="555" as="targetPoint" />
          </mxGeometry>
        </mxCell>
        <mxCell id="wgvURcrzdyZ4Qupp1lnJ-21" value="&lt;span style=&quot;color: rgb(255, 255, 255); font-family: Helvetica; font-size: 12px; font-style: normal; font-variant-ligatures: normal; font-variant-caps: normal; font-weight: 400; letter-spacing: normal; orphans: 2; text-align: left; text-indent: 0px; text-transform: none; widows: 2; word-spacing: 0px; -webkit-text-stroke-width: 0px; white-space: normal; background-color: rgb(27, 29, 30); text-decoration-thickness: initial; text-decoration-style: initial; text-decoration-color: initial; float: none; display: inline !important;&quot;&gt;Unmanage&amp;nbsp;&lt;/span&gt;&lt;span style=&quot;forced-color-adjust: none; box-shadow: none !important; color: light-dark(rgb(0, 0, 0), rgb(255, 255, 255)); font-family: Helvetica; font-size: 12px; font-style: normal; font-variant-ligatures: normal; font-variant-caps: normal; font-weight: 400; letter-spacing: normal; orphans: 2; text-align: left; text-indent: 0px; text-transform: none; widows: 2; word-spacing: 0px; -webkit-text-stroke-width: 0px; white-space: normal; background-color: transparent; text-decoration-thickness: initial; text-decoration-style: initial; text-decoration-color: initial;&quot;&gt;Switch :&amp;nbsp;&lt;/span&gt;&lt;span style=&quot;forced-color-adjust: none; box-shadow: none !important; color: light-dark(rgb(0, 0, 0), rgb(255, 255, 255)); font-family: Helvetica; font-size: 12px; font-style: normal; font-variant-ligatures: normal; font-variant-caps: normal; font-weight: 400; letter-spacing: normal; orphans: 2; text-align: left; text-indent: 0px; text-transform: none; widows: 2; word-spacing: 0px; -webkit-text-stroke-width: 0px; white-space: normal; background-color: transparent; text-decoration-thickness: initial; text-decoration-style: initial; text-decoration-color: initial;&quot;&gt;TP-Link TL-SG1016D&lt;/span&gt;" style="text;whiteSpace=wrap;html=1;movable=0;resizable=0;rotatable=0;deletable=0;editable=0;locked=1;connectable=0;" parent="1" vertex="1">
          <mxGeometry x="862" y="233.12" width="190" height="40" as="geometry" />
        </mxCell>
        <mxCell id="wgvURcrzdyZ4Qupp1lnJ-28" value="" style="group;movable=0;resizable=0;rotatable=0;deletable=0;editable=0;locked=1;connectable=0;" parent="1" connectable="0" vertex="1">
          <mxGeometry x="15" y="95" width="60" height="60" as="geometry" />
        </mxCell>
        <mxCell id="wgvURcrzdyZ4Qupp1lnJ-23" value="" style="rounded=0;whiteSpace=wrap;html=1;strokeColor=#E83202;fillColor=#E83202;movable=0;resizable=0;rotatable=0;deletable=0;editable=0;locked=1;connectable=0;" parent="wgvURcrzdyZ4Qupp1lnJ-28" vertex="1">
          <mxGeometry x="5" width="50" height="60" as="geometry" />
        </mxCell>
        <mxCell id="wgvURcrzdyZ4Qupp1lnJ-24" value="VLAN&lt;div&gt;10&lt;/div&gt;" style="text;strokeColor=none;fillColor=none;html=1;align=center;verticalAlign=middle;whiteSpace=wrap;rounded=0;fontSize=16;movable=0;resizable=0;rotatable=0;deletable=0;editable=0;locked=1;connectable=0;" parent="wgvURcrzdyZ4Qupp1lnJ-28" vertex="1">
          <mxGeometry y="11.875" width="60" height="26.25" as="geometry" />
        </mxCell>
        <mxCell id="wgvURcrzdyZ4Qupp1lnJ-29" value="" style="group;movable=0;resizable=0;rotatable=0;deletable=0;editable=0;locked=1;connectable=0;" parent="1" connectable="0" vertex="1">
          <mxGeometry x="71.55" y="95" width="118.45" height="60" as="geometry" />
        </mxCell>
        <mxCell id="wgvURcrzdyZ4Qupp1lnJ-26" value="" style="rounded=0;whiteSpace=wrap;html=1;strokeColor=#000000;movable=0;resizable=0;rotatable=0;deletable=0;editable=0;locked=1;connectable=0;" parent="wgvURcrzdyZ4Qupp1lnJ-29" vertex="1">
          <mxGeometry width="118.45" height="60" as="geometry" />
        </mxCell>
        <mxCell id="wgvURcrzdyZ4Qupp1lnJ-27" value="MANAGEMENT" style="text;strokeColor=none;fillColor=none;html=1;align=center;verticalAlign=middle;whiteSpace=wrap;rounded=0;fontSize=16;movable=0;resizable=0;rotatable=0;deletable=0;editable=0;locked=1;connectable=0;" parent="wgvURcrzdyZ4Qupp1lnJ-29" vertex="1">
          <mxGeometry x="29.22" y="15" width="60" height="30" as="geometry" />
        </mxCell>
        <mxCell id="wgvURcrzdyZ4Qupp1lnJ-33" value="" style="group;movable=0;resizable=0;rotatable=0;deletable=0;editable=0;locked=1;connectable=0;" parent="1" connectable="0" vertex="1">
          <mxGeometry x="71.55000000000001" y="165" width="118.45" height="60" as="geometry" />
        </mxCell>
        <mxCell id="wgvURcrzdyZ4Qupp1lnJ-34" value="" style="rounded=0;whiteSpace=wrap;html=1;strokeColor=#000000;movable=0;resizable=0;rotatable=0;deletable=0;editable=0;locked=1;connectable=0;" parent="wgvURcrzdyZ4Qupp1lnJ-33" vertex="1">
          <mxGeometry width="118.45" height="60" as="geometry" />
        </mxCell>
        <mxCell id="wgvURcrzdyZ4Qupp1lnJ-35" value="SERVER" style="text;strokeColor=none;fillColor=none;html=1;align=center;verticalAlign=middle;whiteSpace=wrap;rounded=0;fontSize=16;movable=0;resizable=0;rotatable=0;deletable=0;editable=0;locked=1;connectable=0;" parent="wgvURcrzdyZ4Qupp1lnJ-33" vertex="1">
          <mxGeometry x="29.22" y="15" width="60" height="30" as="geometry" />
        </mxCell>
        <mxCell id="wgvURcrzdyZ4Qupp1lnJ-43" value="" style="group;movable=0;resizable=0;rotatable=0;deletable=0;editable=0;locked=1;connectable=0;" parent="1" connectable="0" vertex="1">
          <mxGeometry x="71.55000000000001" y="235" width="118.45" height="60" as="geometry" />
        </mxCell>
        <mxCell id="wgvURcrzdyZ4Qupp1lnJ-44" value="" style="rounded=0;whiteSpace=wrap;html=1;strokeColor=#000000;movable=0;resizable=0;rotatable=0;deletable=0;editable=0;locked=1;connectable=0;" parent="wgvURcrzdyZ4Qupp1lnJ-43" vertex="1">
          <mxGeometry width="118.45" height="60" as="geometry" />
        </mxCell>
        <mxCell id="wgvURcrzdyZ4Qupp1lnJ-45" value="STAFF" style="text;strokeColor=none;fillColor=none;html=1;align=center;verticalAlign=middle;whiteSpace=wrap;rounded=0;fontSize=16;movable=0;resizable=0;rotatable=0;deletable=0;editable=0;locked=1;connectable=0;" parent="wgvURcrzdyZ4Qupp1lnJ-43" vertex="1">
          <mxGeometry x="29.22" y="15" width="60" height="30" as="geometry" />
        </mxCell>
        <mxCell id="wgvURcrzdyZ4Qupp1lnJ-49" value="" style="group;movable=0;resizable=0;rotatable=0;deletable=0;editable=0;locked=1;connectable=0;" parent="1" connectable="0" vertex="1">
          <mxGeometry x="71.55000000000001" y="305" width="118.45" height="60" as="geometry" />
        </mxCell>
        <mxCell id="wgvURcrzdyZ4Qupp1lnJ-50" value="" style="rounded=0;whiteSpace=wrap;html=1;strokeColor=#000000;movable=0;resizable=0;rotatable=0;deletable=0;editable=0;locked=1;connectable=0;" parent="wgvURcrzdyZ4Qupp1lnJ-49" vertex="1">
          <mxGeometry width="118.45" height="60" as="geometry" />
        </mxCell>
        <mxCell id="wgvURcrzdyZ4Qupp1lnJ-51" value="GUEST" style="text;strokeColor=none;fillColor=none;html=1;align=center;verticalAlign=middle;whiteSpace=wrap;rounded=0;fontSize=16;movable=0;resizable=0;rotatable=0;deletable=0;editable=0;locked=1;connectable=0;" parent="wgvURcrzdyZ4Qupp1lnJ-49" vertex="1">
          <mxGeometry x="29.22" y="15" width="60" height="30" as="geometry" />
        </mxCell>
        <mxCell id="wgvURcrzdyZ4Qupp1lnJ-55" value="" style="group;movable=0;resizable=0;rotatable=0;deletable=0;editable=0;locked=1;connectable=0;" parent="1" connectable="0" vertex="1">
          <mxGeometry x="71.55000000000001" y="375" width="118.45" height="60" as="geometry" />
        </mxCell>
        <mxCell id="wgvURcrzdyZ4Qupp1lnJ-56" value="" style="rounded=0;whiteSpace=wrap;html=1;strokeColor=#000000;movable=0;resizable=0;rotatable=0;deletable=0;editable=0;locked=1;connectable=0;" parent="wgvURcrzdyZ4Qupp1lnJ-55" vertex="1">
          <mxGeometry width="118.45" height="60" as="geometry" />
        </mxCell>
        <mxCell id="wgvURcrzdyZ4Qupp1lnJ-57" value="IoT" style="text;strokeColor=none;fillColor=none;html=1;align=center;verticalAlign=middle;whiteSpace=wrap;rounded=0;fontSize=16;movable=0;resizable=0;rotatable=0;deletable=0;editable=0;locked=1;connectable=0;" parent="wgvURcrzdyZ4Qupp1lnJ-55" vertex="1">
          <mxGeometry x="29.22" y="15" width="60" height="30" as="geometry" />
        </mxCell>
        <mxCell id="wgvURcrzdyZ4Qupp1lnJ-61" value="" style="group;movable=0;resizable=0;rotatable=0;deletable=0;editable=0;locked=1;connectable=0;" parent="1" connectable="0" vertex="1">
          <mxGeometry x="71.55000000000001" y="445" width="118.45" height="60" as="geometry" />
        </mxCell>
        <mxCell id="wgvURcrzdyZ4Qupp1lnJ-62" value="" style="rounded=0;whiteSpace=wrap;html=1;strokeColor=#000000;movable=0;resizable=0;rotatable=0;deletable=0;editable=0;locked=1;connectable=0;" parent="wgvURcrzdyZ4Qupp1lnJ-61" vertex="1">
          <mxGeometry width="118.45" height="60" as="geometry" />
        </mxCell>
        <mxCell id="wgvURcrzdyZ4Qupp1lnJ-63" value="Trunk" style="text;strokeColor=none;fillColor=none;html=1;align=center;verticalAlign=middle;whiteSpace=wrap;rounded=0;fontSize=16;movable=0;resizable=0;rotatable=0;deletable=0;editable=0;locked=1;connectable=0;" parent="wgvURcrzdyZ4Qupp1lnJ-61" vertex="1">
          <mxGeometry x="29.22" y="15" width="60" height="30" as="geometry" />
        </mxCell>
        <mxCell id="wgvURcrzdyZ4Qupp1lnJ-31" value="" style="rounded=0;whiteSpace=wrap;html=1;fillColor=#00B833;movable=0;resizable=0;rotatable=0;deletable=0;editable=0;locked=1;connectable=0;" parent="1" vertex="1">
          <mxGeometry x="20" y="165" width="50" height="60" as="geometry" />
        </mxCell>
        <mxCell id="wgvURcrzdyZ4Qupp1lnJ-32" value="VLAN&lt;div&gt;20&lt;/div&gt;" style="text;strokeColor=none;fillColor=none;html=1;align=center;verticalAlign=middle;whiteSpace=wrap;rounded=0;fontSize=16;movable=0;resizable=0;rotatable=0;deletable=0;editable=0;locked=1;connectable=0;" parent="1" vertex="1">
          <mxGeometry x="15" y="176.875" width="60" height="26.25" as="geometry" />
        </mxCell>
        <mxCell id="wgvURcrzdyZ4Qupp1lnJ-41" value="" style="rounded=0;whiteSpace=wrap;html=1;fillColor=#9E0017;movable=0;resizable=0;rotatable=0;deletable=0;editable=0;locked=1;connectable=0;" parent="1" vertex="1">
          <mxGeometry x="20" y="235" width="50" height="60" as="geometry" />
        </mxCell>
        <mxCell id="wgvURcrzdyZ4Qupp1lnJ-42" value="VLAN&lt;div&gt;30&lt;/div&gt;" style="text;strokeColor=none;fillColor=none;html=1;align=center;verticalAlign=middle;whiteSpace=wrap;rounded=0;fontSize=16;movable=0;resizable=0;rotatable=0;deletable=0;editable=0;locked=1;connectable=0;" parent="1" vertex="1">
          <mxGeometry x="15" y="246.875" width="60" height="26.25" as="geometry" />
        </mxCell>
        <mxCell id="wgvURcrzdyZ4Qupp1lnJ-47" value="" style="rounded=0;whiteSpace=wrap;html=1;strokeColor=#5C4BF2;fillColor=#5C4BF2;movable=0;resizable=0;rotatable=0;deletable=0;editable=0;locked=1;connectable=0;" parent="1" vertex="1">
          <mxGeometry x="20" y="305" width="50" height="60" as="geometry" />
        </mxCell>
        <mxCell id="wgvURcrzdyZ4Qupp1lnJ-48" value="VLAN&lt;div&gt;40&lt;/div&gt;" style="text;strokeColor=none;fillColor=none;html=1;align=center;verticalAlign=middle;whiteSpace=wrap;rounded=0;fontSize=16;movable=0;resizable=0;rotatable=0;deletable=0;editable=0;locked=1;connectable=0;" parent="1" vertex="1">
          <mxGeometry x="15" y="316.875" width="60" height="26.25" as="geometry" />
        </mxCell>
        <mxCell id="wgvURcrzdyZ4Qupp1lnJ-64" value="Guest Wifi" style="points=[[0.005,0.09,0],[0.08,0,0],[0.76,0.25,0],[1,0.92,0],[0.91,0.995,0],[0.57,0.995,0],[0.045,0.955,0],[0.005,0.43,0]];verticalLabelPosition=bottom;sketch=0;html=1;verticalAlign=top;aspect=fixed;align=center;pointerEvents=1;shape=mxgraph.cisco19.3g_4g_indicator;fillColor=#5C4BF2;strokeColor=none;direction=north;rotation=-30;movable=0;resizable=0;rotatable=0;deletable=0;editable=0;locked=1;connectable=0;" parent="1" vertex="1">
          <mxGeometry x="63.77000000000001" y="580" width="50" height="50" as="geometry" />
        </mxCell>
        <mxCell id="wgvURcrzdyZ4Qupp1lnJ-65" value="Staff Wifi" style="points=[[0.005,0.09,0],[0.08,0,0],[0.76,0.25,0],[1,0.92,0],[0.91,0.995,0],[0.57,0.995,0],[0.045,0.955,0],[0.005,0.43,0]];verticalLabelPosition=bottom;sketch=0;html=1;verticalAlign=top;aspect=fixed;align=center;pointerEvents=1;shape=mxgraph.cisco19.3g_4g_indicator;fillColor=#9E0017;strokeColor=none;rotation=-15;movable=0;resizable=0;rotatable=0;deletable=0;editable=0;locked=1;connectable=0;" parent="1" vertex="1">
          <mxGeometry x="131" y="552" width="50" height="50" as="geometry" />
        </mxCell>
        <mxCell id="wgvURcrzdyZ4Qupp1lnJ-53" value="" style="rounded=0;whiteSpace=wrap;html=1;strokeColor=#2BC4E0;fillColor=#2BC4E0;movable=0;resizable=0;rotatable=0;deletable=0;editable=0;locked=1;connectable=0;" parent="1" vertex="1">
          <mxGeometry x="20" y="375" width="50" height="60" as="geometry" />
        </mxCell>
        <mxCell id="wgvURcrzdyZ4Qupp1lnJ-54" value="VLAN&lt;div&gt;50&lt;/div&gt;" style="text;strokeColor=none;fillColor=none;html=1;align=center;verticalAlign=middle;whiteSpace=wrap;rounded=0;fontSize=16;movable=0;resizable=0;rotatable=0;deletable=0;editable=0;locked=1;connectable=0;" parent="1" vertex="1">
          <mxGeometry x="15" y="386.875" width="60" height="26.25" as="geometry" />
        </mxCell>
        <mxCell id="wgvURcrzdyZ4Qupp1lnJ-59" value="" style="rounded=0;whiteSpace=wrap;html=1;strokeColor=#E03A2B;fillColor=#E03A2B;movable=0;resizable=0;rotatable=0;deletable=0;editable=0;locked=1;connectable=0;" parent="1" vertex="1">
          <mxGeometry x="20" y="445" width="50" height="60" as="geometry" />
        </mxCell>
        <mxCell id="wgvURcrzdyZ4Qupp1lnJ-60" value="VLAN&lt;div&gt;99&lt;/div&gt;" style="text;strokeColor=none;fillColor=none;html=1;align=center;verticalAlign=middle;whiteSpace=wrap;rounded=0;fontSize=16;movable=0;resizable=0;rotatable=0;deletable=0;editable=0;locked=1;connectable=0;" parent="1" vertex="1">
          <mxGeometry x="15" y="456.875" width="60" height="26.25" as="geometry" />
        </mxCell>
        <mxCell id="WuOIyLYNfGmpn-H2fmUs-9" value="DVR" style="shape=image;html=1;verticalAlign=top;verticalLabelPosition=bottom;labelBackgroundColor=#ffffff;imageAspect=0;aspect=fixed;image=https://icons.diagrams.net/icon-cache1/Business___Finance_glyph_V2-2804/131_CCTV_Camera_Security_Surveillance_Technology_technology_smart-709.svg;movable=0;resizable=0;rotatable=0;deletable=0;editable=0;locked=1;connectable=0;" parent="1" vertex="1">
          <mxGeometry x="400" y="593" width="65" height="65" as="geometry" />
        </mxCell>
        <mxCell id="WuOIyLYNfGmpn-H2fmUs-13" value="REDUNDANCY&lt;div&gt;Ether 1&amp;amp;2&lt;/div&gt;" style="text;strokeColor=none;fillColor=none;html=1;align=center;verticalAlign=middle;whiteSpace=wrap;rounded=0;fontSize=10;movable=0;resizable=0;rotatable=0;deletable=0;editable=0;locked=1;connectable=0;" parent="1" vertex="1">
          <mxGeometry x="325" y="480.08000000000004" width="100" height="15" as="geometry" />
        </mxCell>
        <mxCell id="WuOIyLYNfGmpn-H2fmUs-14" value="REDUNDANCY&lt;div&gt;Ether 3&amp;amp;4&lt;/div&gt;" style="text;strokeColor=none;fillColor=none;html=1;align=center;verticalAlign=middle;whiteSpace=wrap;rounded=0;fontSize=10;movable=0;resizable=0;rotatable=0;deletable=0;editable=0;locked=1;connectable=0;" parent="1" vertex="1">
          <mxGeometry x="425" y="480.08000000000004" width="100" height="15" as="geometry" />
        </mxCell>
        <mxCell id="WuOIyLYNfGmpn-H2fmUs-24" value="Port 3-4" style="edgeLabel;html=1;align=center;verticalAlign=middle;resizable=0;points=[];fontSize=12;movable=0;rotatable=0;deletable=0;editable=0;locked=1;connectable=0;" parent="1" connectable="0" vertex="1">
          <mxGeometry x="571.1" y="734" as="geometry" />
        </mxCell>
        <mxCell id="WuOIyLYNfGmpn-H2fmUs-25" value="Port 5-6" style="edgeLabel;html=1;align=center;verticalAlign=middle;resizable=0;points=[];fontSize=12;movable=0;rotatable=0;deletable=0;editable=0;locked=1;connectable=0;" parent="1" connectable="0" vertex="1">
          <mxGeometry x="645.01" y="735" as="geometry" />
        </mxCell>
        <mxCell id="WuOIyLYNfGmpn-H2fmUs-26" value="REDUNDANCY&lt;div&gt;Ether 1&amp;amp;2&lt;/div&gt;" style="text;strokeColor=none;fillColor=none;html=1;align=center;verticalAlign=middle;whiteSpace=wrap;rounded=0;fontSize=10;movable=0;resizable=0;rotatable=0;deletable=0;editable=0;locked=1;connectable=0;" parent="1" vertex="1">
          <mxGeometry x="293" y="537" width="100" height="15" as="geometry" />
        </mxCell>
        <mxCell id="WuOIyLYNfGmpn-H2fmUs-27" value="REDUNDANCY&lt;div&gt;Ether 1&amp;amp;2&lt;/div&gt;" style="text;strokeColor=none;fillColor=none;html=1;align=center;verticalAlign=middle;whiteSpace=wrap;rounded=0;fontSize=10;movable=0;resizable=0;rotatable=0;deletable=0;editable=0;locked=1;connectable=0;" parent="1" vertex="1">
          <mxGeometry x="472" y="536" width="100" height="15" as="geometry" />
        </mxCell>
        <mxCell id="WuOIyLYNfGmpn-H2fmUs-28" value="Port 7" style="edgeLabel;html=1;align=center;verticalAlign=middle;resizable=0;points=[];fontSize=12;movable=0;rotatable=0;deletable=0;editable=0;locked=1;connectable=0;" parent="1" connectable="0" vertex="1">
          <mxGeometry x="553" y="638" as="geometry" />
        </mxCell>
        <mxCell id="WuOIyLYNfGmpn-H2fmUs-29" value="Port 8" style="edgeLabel;html=1;align=center;verticalAlign=middle;resizable=0;points=[];fontSize=12;movable=0;rotatable=0;deletable=0;editable=0;locked=1;connectable=0;" parent="1" connectable="0" vertex="1">
          <mxGeometry x="660" y="638" as="geometry" />
        </mxCell>
        <mxCell id="WuOIyLYNfGmpn-H2fmUs-31" value="Port 9-24" style="edgeLabel;html=1;align=center;verticalAlign=middle;resizable=0;points=[];fontSize=12;movable=0;rotatable=0;deletable=0;editable=0;locked=1;connectable=0;" parent="1" connectable="0" vertex="1">
          <mxGeometry x="645.01" y="765" as="geometry" />
        </mxCell>
        <mxCell id="WuOIyLYNfGmpn-H2fmUs-35" value="Ether 5" style="text;html=1;align=center;verticalAlign=middle;resizable=0;points=[];autosize=1;strokeColor=none;fillColor=none;fontSize=10;movable=0;rotatable=0;deletable=0;editable=0;locked=1;connectable=0;" parent="1" vertex="1">
          <mxGeometry x="392.25" y="375.88" width="60" height="30" as="geometry" />
        </mxCell>
        <mxCell id="WuOIyLYNfGmpn-H2fmUs-36" value="Ether 1" style="text;html=1;align=center;verticalAlign=middle;resizable=0;points=[];autosize=1;strokeColor=none;fillColor=none;fontSize=10;movable=0;rotatable=0;deletable=0;editable=0;locked=1;connectable=0;" parent="1" vertex="1">
          <mxGeometry x="334" y="330" width="60" height="30" as="geometry" />
        </mxCell>
        <mxCell id="WuOIyLYNfGmpn-H2fmUs-38" value="Ether 2" style="text;html=1;align=center;verticalAlign=middle;resizable=0;points=[];autosize=1;strokeColor=none;fillColor=none;fontSize=10;movable=0;rotatable=0;deletable=0;editable=0;locked=1;connectable=0;" parent="1" vertex="1">
          <mxGeometry x="448" y="330" width="60" height="30" as="geometry" />
        </mxCell>
        <mxCell id="WuOIyLYNfGmpn-H2fmUs-39" value="" style="group;movable=0;resizable=0;rotatable=0;deletable=0;editable=0;locked=1;connectable=0;" parent="1" connectable="0" vertex="1">
          <mxGeometry x="313" y="204" width="60" height="55.315" as="geometry" />
        </mxCell>
        <mxCell id="c4z20yVUbwWjeVvLzU7N-3" value="" style="fillColorStyles=neutralFill;neutralFill=#9DA6A8;shape=mxgraph.networks2.icon;aspect=fixed;fillColor=#EDEDED;strokeColor=#000000;gradientColor=#5B6163;network2IconShadow=1;network2bgFillColor=none;network2Icon=mxgraph.networks2.router;network2IconXOffset=0.0001;network2IconYOffset=-0.1142;network2IconW=1;network2IconH=0.5485;movable=0;resizable=0;rotatable=0;deletable=0;editable=0;locked=1;connectable=0;" parent="WuOIyLYNfGmpn-H2fmUs-39" vertex="1">
          <mxGeometry x="5.000000000000057" y="27.889999999999986" width="50" height="27.425" as="geometry" />
        </mxCell>
        <mxCell id="c4z20yVUbwWjeVvLzU7N-13" value="ISP 1" style="text;strokeColor=none;fillColor=none;html=1;align=center;verticalAlign=middle;whiteSpace=wrap;rounded=0;fontSize=16;movable=0;resizable=0;rotatable=0;deletable=0;editable=0;locked=1;connectable=0;" parent="WuOIyLYNfGmpn-H2fmUs-39" vertex="1">
          <mxGeometry width="60" height="30" as="geometry" />
        </mxCell>
        <mxCell id="WuOIyLYNfGmpn-H2fmUs-40" value="" style="group;movable=0;resizable=0;rotatable=0;deletable=0;editable=0;locked=1;connectable=0;" parent="1" connectable="0" vertex="1">
          <mxGeometry x="468" y="205" width="60" height="54.315" as="geometry" />
        </mxCell>
        <mxCell id="c4z20yVUbwWjeVvLzU7N-17" value="" style="fillColorStyles=neutralFill;neutralFill=#9DA6A8;shape=mxgraph.networks2.icon;aspect=fixed;fillColor=#EDEDED;strokeColor=#000000;gradientColor=#5B6163;network2IconShadow=1;network2bgFillColor=none;network2Icon=mxgraph.networks2.router;network2IconXOffset=0.0001;network2IconYOffset=-0.1142;network2IconW=1;network2IconH=0.5485;movable=0;resizable=0;rotatable=0;deletable=0;editable=0;locked=1;connectable=0;" parent="WuOIyLYNfGmpn-H2fmUs-40" vertex="1">
          <mxGeometry x="5.000000000000057" y="26.889999999999986" width="50" height="27.425" as="geometry" />
        </mxCell>
        <mxCell id="c4z20yVUbwWjeVvLzU7N-18" value="ISP 2" style="text;strokeColor=none;fillColor=none;html=1;align=center;verticalAlign=middle;whiteSpace=wrap;rounded=0;fontSize=16;movable=0;resizable=0;rotatable=0;deletable=0;editable=0;locked=1;connectable=0;" parent="WuOIyLYNfGmpn-H2fmUs-40" vertex="1">
          <mxGeometry width="60" height="30" as="geometry" />
        </mxCell>
        <mxCell id="WuOIyLYNfGmpn-H2fmUs-47" value="PCC + VLAN" style="text;strokeColor=none;fillColor=none;html=1;align=center;verticalAlign=middle;whiteSpace=wrap;rounded=0;fontSize=16;movable=0;resizable=0;rotatable=0;deletable=0;editable=0;locked=1;connectable=0;" parent="1" vertex="1">
          <mxGeometry x="907" y="358" width="110" height="30" as="geometry" />
        </mxCell>
        <mxCell id="WuOIyLYNfGmpn-H2fmUs-50" value="" style="group;movable=0;resizable=0;rotatable=0;deletable=0;editable=0;locked=1;connectable=0;" parent="1" connectable="0" vertex="1">
          <mxGeometry x="897.0000000000001" y="296.21" width="205" height="35.110000000000014" as="geometry" />
        </mxCell>
        <mxCell id="WuOIyLYNfGmpn-H2fmUs-42" value="" style="fillColorStyles=neutralFill;neutralFill=#9DA6A8;shape=mxgraph.networks2.icon;aspect=fixed;fillColor=#EDEDED;strokeColor=#000000;gradientColor=#5B6163;network2IconShadow=1;network2bgFillColor=none;network2Icon=mxgraph.networks2.router;network2IconXOffset=0.0001;network2IconYOffset=-0.1142;network2IconW=1;network2IconH=0.5485;movable=0;resizable=0;rotatable=0;deletable=0;editable=0;locked=1;connectable=0;" parent="WuOIyLYNfGmpn-H2fmUs-50" vertex="1">
          <mxGeometry width="50" height="27.425" as="geometry" />
        </mxCell>
        <mxCell id="WuOIyLYNfGmpn-H2fmUs-43" value="ROUTER SETUP" style="text;strokeColor=none;fillColor=none;html=1;align=center;verticalAlign=middle;whiteSpace=wrap;rounded=0;fontSize=16;movable=0;resizable=0;rotatable=0;deletable=0;editable=0;locked=1;connectable=0;" parent="WuOIyLYNfGmpn-H2fmUs-50" vertex="1">
          <mxGeometry x="60" y="5.110000000000014" width="145" height="30" as="geometry" />
        </mxCell>
        <mxCell id="WuOIyLYNfGmpn-H2fmUs-51" value="&lt;div&gt;&lt;span style=&quot;background-color: transparent; color: light-dark(rgb(0, 0, 0), rgb(255, 255, 255));&quot;&gt;/interface vrrp&lt;/span&gt;&lt;/div&gt;&lt;div&gt;&lt;div&gt;add interface=vlan99-trunk name=vrrp1 vrid=10 priority=150 authentication=pass password=&quot;Dirga99(&quot;&lt;/div&gt;&lt;/div&gt;&lt;div&gt;&lt;br&gt;&lt;/div&gt;&lt;div&gt;&lt;div&gt;/interface vlan&lt;/div&gt;&lt;div&gt;add name=vlan99-trunk interface=ether5 vlan-id=99 comment=&quot;vlan99-trunk&quot;&lt;/div&gt;&lt;/div&gt;&lt;div&gt;&lt;br&gt;&lt;/div&gt;&lt;div&gt;&lt;span style=&quot;background-color: transparent; color: light-dark(rgb(0, 0, 0), rgb(255, 255, 255));&quot;&gt;/ip address&lt;/span&gt;&lt;/div&gt;&lt;div&gt;&lt;div&gt;add address=192.168.99.1/24 interface=vlan99-trunk comment=&quot;Trunk to CRS310&quot;&lt;/div&gt;&lt;/div&gt;&lt;div&gt;add address=192.168.99.254/24 interface=vrrp1&lt;/div&gt;&lt;div&gt;&lt;br&gt;&lt;/div&gt;&lt;div&gt;&lt;div&gt;&lt;span style=&quot;background-color: transparent; color: light-dark(rgb(0, 0, 0), rgb(255, 255, 255));&quot;&gt;/ip firewall nat&lt;/span&gt;&lt;/div&gt;&lt;div&gt;&lt;div&gt;add chain=srcnat out-interface=ether1 action=masquerade comment=&quot;ISP1&quot;&lt;/div&gt;&lt;div&gt;add chain=srcnat out-interface=ether2 action=masquerade comment=&quot;ISP2&quot;&lt;/div&gt;&lt;/div&gt;&lt;/div&gt;&lt;div&gt;&lt;div&gt;add chain=srcnat connection-mark=ISP1_conn out-interface=ether1 action=masquerade&lt;/div&gt;&lt;div&gt;add chain=srcnat connection-mark=ISP2_conn out-interface=ether2 action=masquerade&lt;/div&gt;&lt;/div&gt;&lt;div&gt;&lt;div&gt;&lt;br&gt;&lt;/div&gt;&lt;div&gt;&lt;div&gt;&lt;div&gt;/tool netwatch&lt;/div&gt;&lt;div&gt;add host=&amp;lt;ISP1_GATEWAY_IP&amp;gt; interval=00:00:05 timeout=1000ms \&lt;/div&gt;&lt;div&gt;&amp;nbsp; &amp;nbsp; up-script=&quot;:log info \&quot;ISP1 UP\&quot;; :delay 10s; /interface vrrp set vrrp1 priority=150&quot; \&lt;/div&gt;&lt;div&gt;&amp;nbsp; &amp;nbsp; down-script=&quot;:log warning \&quot;ISP1 DOWN!\&quot;; :delay 10s; /interface vrrp set vrrp1 priority=50&quot;&lt;/div&gt;&lt;div&gt;&lt;br&gt;&lt;/div&gt;&lt;div&gt;add host=&amp;lt;ISP2_GATEWAY_IP&amp;gt; interval=00:00:05 timeout=1000ms \&lt;/div&gt;&lt;div&gt;&amp;nbsp; &amp;nbsp; up-script=&quot;:log info \&quot;ISP2 UP\&quot;; :delay 10s; /interface vrrp set vrrp1 priority=150&quot; \&lt;/div&gt;&lt;div&gt;&amp;nbsp; &amp;nbsp; down-script=&quot;:log warning \&quot;ISP2 DOWN!\&quot;; :delay 10s; /interface vrrp set vrrp1 priority=50&quot;&lt;/div&gt;&lt;/div&gt;&lt;/div&gt;&lt;/div&gt;" style="text;strokeColor=none;fillColor=none;html=1;align=left;verticalAlign=top;whiteSpace=wrap;rounded=0;fontSize=10;movable=0;resizable=0;rotatable=0;deletable=0;editable=0;locked=1;connectable=0;" parent="1" vertex="1">
          <mxGeometry x="887" y="398" width="323" height="442" as="geometry" />
        </mxCell>
        <mxCell id="WuOIyLYNfGmpn-H2fmUs-52" value="&lt;div&gt;&lt;span style=&quot;background-color: transparent; color: light-dark(rgb(0, 0, 0), rgb(255, 255, 255));&quot;&gt;/ip firewall mangle&lt;/span&gt;&lt;/div&gt;&lt;div&gt;&lt;br&gt;&lt;/div&gt;&lt;div&gt;&lt;div&gt;# Connection marking for PCC (2 ISPs)&lt;/div&gt;&lt;div&gt;add chain=prerouting src-address=192.168.0.0/16 dst-address-type=!local \&lt;/div&gt;&lt;div&gt;&amp;nbsp; &amp;nbsp; per-connection-classifier=both-addresses:2/0 action=mark-connection new-connection-mark=ISP1_conn passthrough=yes&lt;/div&gt;&lt;div&gt;&lt;br&gt;&lt;/div&gt;&lt;div&gt;add chain=prerouting src-address=192.168.0.0/16 dst-address-type=!local \&lt;/div&gt;&lt;div&gt;&amp;nbsp; &amp;nbsp; per-connection-classifier=both-addresses:2/1 action=mark-connection new-connection-mark=ISP2_conn passthrough=yes&lt;/div&gt;&lt;div&gt;&lt;br&gt;&lt;/div&gt;&lt;div&gt;&lt;span style=&quot;background-color: transparent; color: light-dark(rgb(0, 0, 0), rgb(255, 255, 255));&quot;&gt;add chain=prerouting connection-mark=ISP1_conn action=mark-routing new-routing-mark=to_ISP1 passthrough=yes&lt;/span&gt;&lt;/div&gt;&lt;div&gt;add chain=prerouting connection-mark=ISP2_conn action=mark-routing new-routing-mark=to_ISP2 passthrough=yes&lt;/div&gt;&lt;/div&gt;&lt;div&gt;&lt;br&gt;&lt;/div&gt;&lt;div&gt;&lt;div&gt;&lt;span style=&quot;background-color: transparent; color: light-dark(rgb(0, 0, 0), rgb(255, 255, 255));&quot;&gt;/ip firewall filter&lt;/span&gt;&lt;/div&gt;&lt;div&gt;&lt;div&gt;add chain=input connection-state=established,related action=accept comment=&quot;Accept established/related&quot;&lt;/div&gt;&lt;div&gt;add chain=input connection-state=invalid action=drop&amp;nbsp;&lt;span style=&quot;background-color: transparent; color: light-dark(rgb(0, 0, 0), rgb(255, 255, 255));&quot;&gt;comment=&quot;&lt;/span&gt;&lt;span style=&quot;background-color: transparent;&quot;&gt;Drop invalid packets&lt;/span&gt;&lt;span style=&quot;background-color: transparent; color: light-dark(rgb(0, 0, 0), rgb(255, 255, 255));&quot;&gt;&quot;&lt;/span&gt;&lt;/div&gt;&lt;div&gt;add chain=input src-address=192.168.10.0/24 action=accept&amp;nbsp;&lt;span style=&quot;background-color: transparent; color: light-dark(rgb(0, 0, 0), rgb(255, 255, 255));&quot;&gt;comment=&quot;&lt;/span&gt;&lt;span style=&quot;background-color: transparent;&quot;&gt;Allow LAN management access&lt;/span&gt;&lt;span style=&quot;background-color: transparent; color: light-dark(rgb(0, 0, 0), rgb(255, 255, 255));&quot;&gt;&quot;&lt;/span&gt;&lt;/div&gt;&lt;div&gt;add chain=input protocol=tcp dst-port=8291 src-address=192.168.10.0/24 action=accept&amp;nbsp;&lt;span style=&quot;background-color: transparent; color: light-dark(rgb(0, 0, 0), rgb(255, 255, 255));&quot;&gt;comment=&quot;&lt;/span&gt;&lt;span style=&quot;background-color: transparent;&quot;&gt;Allow Winbox from LAN only&lt;/span&gt;&lt;span style=&quot;background-color: transparent; color: light-dark(rgb(0, 0, 0), rgb(255, 255, 255));&quot;&gt;&quot;&lt;/span&gt;&lt;/div&gt;&lt;div&gt;add chain=input protocol=icmp src-address=192.168.10.0/24 action=accept&amp;nbsp;&lt;span style=&quot;background-color: transparent; color: light-dark(rgb(0, 0, 0), rgb(255, 255, 255));&quot;&gt;comment=&quot;&lt;/span&gt;&lt;span style=&quot;background-color: transparent;&quot;&gt;Allow ping from LAN&lt;/span&gt;&lt;span style=&quot;background-color: transparent; color: light-dark(rgb(0, 0, 0), rgb(255, 255, 255));&quot;&gt;&quot;&lt;/span&gt;&lt;/div&gt;&lt;/div&gt;&lt;div&gt;&lt;div&gt;add chain=forward src-address=192.168.50.0/24 dst-address=192.168.30.0/24 protocol=tcp dst-port=80,443 action=accept comment=&quot;Allow IoT to access web on server (optional)&quot;&lt;/div&gt;&lt;div&gt;add chain=forward src-address=192.168.50.0/24 dst-address=192.168.30.0/24 action=drop log=yes log-prefix=&quot;IoT→Server Block&quot;&lt;/div&gt;&lt;/div&gt;&lt;/div&gt;&lt;div&gt;&lt;div&gt;add chain=input in-interface=vrrp1 src-address=192.168.10.0/24 action=accept comment=&quot;Allow trusted management to VRRP&quot;&lt;/div&gt;&lt;div&gt;add chain=input in-interface=vrrp1 action=drop comment=&quot;Drop all other input to VRRP&quot;&lt;/div&gt;&lt;/div&gt;&lt;div&gt;&lt;div&gt;add chain=input in-interface=ether1 action=drop comment=&quot;Block WAN access&quot;&lt;/div&gt;&lt;div&gt;add chain=input in-interface=ether2 action=drop comment=&quot;Block WAN access&quot;&lt;/div&gt;&lt;/div&gt;&lt;div&gt;add chain=input action=drop&amp;nbsp;log=yes log-prefix=&quot;DROP ALL&quot;&amp;nbsp;log-disabled=no&amp;nbsp;&lt;span style=&quot;color: light-dark(rgb(0, 0, 0), rgb(255, 255, 255)); background-color: transparent;&quot;&gt;comment=&quot;&lt;/span&gt;&lt;span style=&quot;background-color: transparent;&quot;&gt;Drop everything else&lt;/span&gt;&lt;span style=&quot;color: light-dark(rgb(0, 0, 0), rgb(255, 255, 255)); background-color: transparent;&quot;&gt;&quot;&amp;nbsp;&lt;/span&gt;&lt;span style=&quot;background-color: transparent;&quot;&gt;log-rate=5/1s&lt;/span&gt;&lt;/div&gt;&lt;div&gt;&lt;div&gt;add chain=input protocol=tcp dst-port=8291 connection-state=new src-address-list=blacklist action=drop comment=&quot;Block Winbox brute force&quot;&lt;/div&gt;&lt;div&gt;add chain=input protocol=tcp dst-port=8291 connection-state=new action=add-src-to-address-list address-list=blacklist address-list-timeout=1d comment=&quot;Detect Winbox brute force&quot;&lt;/div&gt;&lt;div&gt;add chain=input protocol=tcp dst-port=22 connection-state=new action=add-src-to-address-list address-list=blacklist address-list-timeout=1d comment=&quot;Detect SSH brute force&quot;&lt;/div&gt;&lt;div&gt;add chain=input protocol=tcp dst-port=22 src-address-list=blacklist action=drop comment=&quot;Block SSH brute force&quot;&lt;/div&gt;&lt;/div&gt;" style="text;strokeColor=none;fillColor=none;html=1;align=left;verticalAlign=top;whiteSpace=wrap;rounded=0;fontSize=10;movable=0;resizable=0;rotatable=0;deletable=0;editable=0;locked=1;connectable=0;" parent="1" vertex="1">
          <mxGeometry x="1222" y="277" width="463" height="593" as="geometry" />
        </mxCell>
        <mxCell id="WuOIyLYNfGmpn-H2fmUs-53" value="&lt;div style=&quot;&quot;&gt;&lt;div style=&quot;&quot;&gt;&lt;span style=&quot;background-color: transparent; color: light-dark(rgb(0, 0, 0), rgb(255, 255, 255));&quot;&gt;/ip route&lt;/span&gt;&lt;/div&gt;&lt;div style=&quot;&quot;&gt;add dst-address=0.0.0.0/0 gateway=&amp;lt;ISP1_GATEWAY_IP&amp;gt; routing-mark=to_ISP1 check-gateway=ping&lt;/div&gt;&lt;div style=&quot;&quot;&gt;add dst-address=0.0.0.0/0 gateway=&amp;lt;ISP2_GATEWAY_IP&amp;gt; routing-mark=to_ISP2 check-gateway=ping&lt;/div&gt;&lt;div style=&quot;&quot;&gt;add dst-address=0.0.0.0/0 gateway=&amp;lt;ISP1_GATEWAY_IP&amp;gt; distance=1 check-gateway=ping&lt;/div&gt;&lt;div style=&quot;&quot;&gt;add dst-address=0.0.0.0/0 gateway=&amp;lt;ISP2_GATEWAY_IP&amp;gt; distance=2 check-gateway=ping&lt;/div&gt;&lt;div style=&quot;&quot;&gt;add dst-address=192.168.0.0/16 gateway=192.168.99.2 comment=&quot;Inter-VLAN via CRS310&quot;&lt;/div&gt;&lt;div style=&quot;&quot;&gt;&lt;br&gt;&lt;/div&gt;&lt;div style=&quot;&quot;&gt;&lt;div&gt;&lt;div&gt;/ip dns set servers=8.8.8.8,1.1.1.1 allow-remote-requests=yes&lt;/div&gt;&lt;div&gt;&lt;br&gt;&lt;/div&gt;&lt;div&gt;&lt;div&gt;&lt;span style=&quot;background-color: transparent; color: light-dark(rgb(0, 0, 0), rgb(255, 255, 255));&quot;&gt;/ip service disable telnet,ftp,www,api,api-ssl&lt;/span&gt;&lt;/div&gt;&lt;div&gt;&lt;br&gt;&lt;/div&gt;&lt;div&gt;&lt;span style=&quot;background-color: transparent; color: light-dark(rgb(0, 0, 0), rgb(255, 255, 255));&quot;&gt;/ip service set ssh address=192.168.10.0/24&lt;/span&gt;&lt;/div&gt;&lt;div&gt;/ip service set winbox address=192.168.10.0/24&lt;/div&gt;&lt;/div&gt;&lt;/div&gt;&lt;/div&gt;&lt;/div&gt;" style="text;strokeColor=none;fillColor=none;html=1;align=left;verticalAlign=top;whiteSpace=wrap;rounded=0;fontSize=10;movable=0;resizable=0;rotatable=0;deletable=0;editable=0;locked=1;connectable=0;" parent="1" vertex="1">
          <mxGeometry x="886" y="853.65" width="584" height="205.48" as="geometry" />
        </mxCell>
        <mxCell id="WuOIyLYNfGmpn-H2fmUs-58" value="# MikroTik RB750Gr3" style="text;strokeColor=none;fillColor=none;html=1;align=center;verticalAlign=middle;whiteSpace=wrap;rounded=0;fontSize=16;movable=0;resizable=0;rotatable=0;deletable=0;editable=0;locked=1;connectable=0;" parent="1" vertex="1">
          <mxGeometry x="947" y="320" width="170" height="30" as="geometry" />
        </mxCell>
        <mxCell id="WuOIyLYNfGmpn-H2fmUs-59" value="" style="fillColorStyles=neutralFill;neutralFill=#9DA6A8;shape=mxgraph.networks2.icon;aspect=fixed;fillColor=#000000;strokeColor=#FFFFFF;gradientColor=#02E88C;network2IconShadow=1;network2bgFillColor=none;network2Icon=mxgraph.networks2.hub;network2IconXOffset=0.0001;network2IconYOffset=0.0129;network2IconW=1;network2IconH=0.2938;movable=0;resizable=0;rotatable=0;deletable=0;editable=0;locked=1;connectable=0;" parent="1" vertex="1">
          <mxGeometry x="16" y="1135.65" width="50" height="14.69" as="geometry" />
        </mxCell>
        <mxCell id="WuOIyLYNfGmpn-H2fmUs-60" value="Core Switch&amp;nbsp;&lt;span style=&quot;background-color: transparent; color: light-dark(rgb(0, 0, 0), rgb(255, 255, 255));&quot;&gt;VLAN Setup&lt;/span&gt;" style="text;strokeColor=none;fillColor=none;html=1;align=center;verticalAlign=middle;whiteSpace=wrap;rounded=0;fontSize=16;movable=0;resizable=0;rotatable=0;deletable=0;editable=0;locked=1;connectable=0;" parent="1" vertex="1">
          <mxGeometry x="73" y="1133" width="186" height="20" as="geometry" />
        </mxCell>
        <mxCell id="WuOIyLYNfGmpn-H2fmUs-63" value="# MikroTik CRS310" style="text;strokeColor=none;fillColor=none;html=1;align=center;verticalAlign=middle;whiteSpace=wrap;rounded=0;fontSize=16;movable=0;resizable=0;rotatable=0;deletable=0;editable=0;locked=1;connectable=0;" parent="1" vertex="1">
          <mxGeometry x="91" y="1156" width="150" height="30" as="geometry" />
        </mxCell>
        <mxCell id="WuOIyLYNfGmpn-H2fmUs-65" value="" style="endArrow=none;html=1;rounded=0;fontSize=12;startSize=8;endSize=8;curved=1;entryX=0.425;entryY=-0.002;entryDx=0;entryDy=0;entryPerimeter=0;movable=0;resizable=0;rotatable=0;deletable=0;editable=0;locked=1;connectable=0;" parent="1" edge="1">
          <mxGeometry width="50" height="50" relative="1" as="geometry">
            <mxPoint x="1220" y="870" as="sourcePoint" />
            <mxPoint x="1216.025" y="280.38" as="targetPoint" />
          </mxGeometry>
        </mxCell>
        <mxCell id="WuOIyLYNfGmpn-H2fmUs-66" value="" style="endArrow=none;html=1;rounded=0;fontSize=12;startSize=8;endSize=8;curved=1;movable=0;resizable=0;rotatable=0;deletable=0;editable=0;locked=1;connectable=0;" parent="1" edge="1">
          <mxGeometry width="50" height="50" relative="1" as="geometry">
            <mxPoint x="888" y="838" as="sourcePoint" />
            <mxPoint x="1218" y="838" as="targetPoint" />
          </mxGeometry>
        </mxCell>
        <mxCell id="WuOIyLYNfGmpn-H2fmUs-67" value="" style="endArrow=none;html=1;rounded=0;fontSize=12;startSize=8;endSize=8;curved=1;movable=0;resizable=0;rotatable=0;deletable=0;editable=0;locked=1;connectable=0;" parent="1" edge="1">
          <mxGeometry width="50" height="50" relative="1" as="geometry">
            <mxPoint x="1220" y="869" as="sourcePoint" />
            <mxPoint x="1692" y="870" as="targetPoint" />
          </mxGeometry>
        </mxCell>
        <mxCell id="WuOIyLYNfGmpn-H2fmUs-68" value="" style="endArrow=none;html=1;rounded=0;fontSize=12;startSize=8;endSize=8;curved=1;movable=0;resizable=0;rotatable=0;deletable=0;editable=0;locked=1;connectable=0;" parent="1" edge="1">
          <mxGeometry width="50" height="50" relative="1" as="geometry">
            <mxPoint x="887" y="351" as="sourcePoint" />
            <mxPoint x="1217" y="351" as="targetPoint" />
          </mxGeometry>
        </mxCell>
        <mxCell id="WuOIyLYNfGmpn-H2fmUs-69" value="&lt;div&gt;/interface bridge&lt;/div&gt;&lt;div&gt;add name=bridge1 vlan-filtering=yes&lt;span style=&quot;background-color: transparent; color: light-dark(rgb(0, 0, 0), rgb(255, 255, 255));&quot;&gt;&amp;nbsp;protocol-mode=rstp priority=0x8000&lt;/span&gt;&lt;/div&gt;&lt;div&gt;&lt;br&gt;&lt;/div&gt;&lt;div&gt;&lt;div&gt;# Create LAG bonding (802.3ad) for ether1,ether2 + ether3,ether4&lt;/div&gt;&lt;div&gt;/interface bonding&lt;/div&gt;&lt;div&gt;add name=bond1 slaves=ether1,ether2 mode=802.3ad lacp-rate=1s&amp;nbsp;comment=&quot;To CSS326 LT.1&quot;&lt;/div&gt;&lt;/div&gt;&lt;div&gt;&lt;div&gt;add name=bond2 slaves=ether3,ether4 mode=802.3ad lacp-rate=1s&amp;nbsp;comment=&quot;To CSS326 LT.2&quot;&lt;/div&gt;&lt;div&gt;&lt;br&gt;&lt;/div&gt;&lt;/div&gt;&lt;div&gt;&lt;div&gt;/interface list&lt;/div&gt;&lt;div&gt;add name=LAN&lt;/div&gt;&lt;div&gt;add name=WAN&lt;/div&gt;&lt;/div&gt;&lt;div&gt;&lt;br&gt;&lt;/div&gt;&lt;div&gt;&lt;div&gt;/interface list member&lt;/div&gt;&lt;div&gt;add interface=vlan10-management list=LAN&lt;/div&gt;&lt;div&gt;add interface=vlan30-staff list=LAN&lt;/div&gt;&lt;div&gt;add interface=vlan40-guest list=LAN&lt;/div&gt;&lt;div&gt;add interface=vlan50-iot list=LAN&lt;/div&gt;&lt;/div&gt;&lt;div&gt;&lt;br&gt;&lt;/div&gt;&lt;div&gt;/interface bridge port&lt;/div&gt;&lt;div&gt;add bridge=bridge1 interface=bond1&lt;/div&gt;&lt;div&gt;add bridge=bridge1 interface=bond2&lt;/div&gt;&lt;div&gt;add bridge=bridge1 interface=ether5&lt;/div&gt;&lt;div&gt;add bridge=bridge1 interface=ether6&lt;/div&gt;&lt;div&gt;add bridge=bridge1 interface=ether7&lt;/div&gt;&lt;div&gt;add bridge=bridge1 interface=ether8&lt;/div&gt;&lt;div&gt;add bridge=bridge1 interface=sfp-sfpplus1&lt;/div&gt;&lt;div&gt;add bridge=bridge1 interface=sfp-sfpplus2&lt;/div&gt;&lt;div&gt;&lt;br&gt;&lt;/div&gt;&lt;div&gt;&lt;div&gt;/interface vlan&lt;/div&gt;&lt;div&gt;add interface=bridge1 name=vlan10-management vlan-id=10&lt;/div&gt;&lt;div&gt;add interface=bridge1 name=vlan20-server vlan-id=20&lt;/div&gt;&lt;div&gt;add interface=bridge1 name=vlan30-staff vlan-id=30&lt;/div&gt;&lt;div&gt;add interface=bridge1 name=vlan40-guest vlan-id=40&lt;/div&gt;&lt;div&gt;add interface=bridge1 name=vlan50-iot vlan-id=50&lt;/div&gt;&lt;/div&gt;&lt;div&gt;add name=vlan99-trunk interface=bridge1 vlan-id=99&lt;/div&gt;&lt;div&gt;&lt;br&gt;&lt;/div&gt;&lt;div&gt;&lt;div&gt;/interface bridge vlan&lt;/div&gt;&lt;div&gt;&lt;br&gt;&lt;/div&gt;&lt;div&gt;add bridge=bridge1 tagged=bridge1,bond1,bond2,ether5,sfp-sfpplus1,sfp-sfpplus2 vlan-ids=10&lt;/div&gt;&lt;div&gt;&lt;br&gt;&lt;/div&gt;&lt;div&gt;add bridge=bridge1 tagged=bridge1,&lt;span style=&quot;background-color: transparent; color: light-dark(rgb(0, 0, 0), rgb(255, 255, 255));&quot;&gt;bond1,bond2,&lt;/span&gt;&lt;span style=&quot;background-color: transparent; color: light-dark(rgb(0, 0, 0), rgb(255, 255, 255));&quot;&gt;sfp-sfpplus1,sfp-sfpplus2 vlan-ids=20&lt;/span&gt;&lt;/div&gt;&lt;div&gt;&lt;br&gt;&lt;/div&gt;&lt;div&gt;add bridge=bridge1 tagged=bridge1,&lt;span style=&quot;background-color: transparent; color: light-dark(rgb(0, 0, 0), rgb(255, 255, 255));&quot;&gt;bond1,bond2,&lt;/span&gt;&lt;span style=&quot;background-color: transparent; color: light-dark(rgb(0, 0, 0), rgb(255, 255, 255));&quot;&gt;sfp-sfpplus1,sfp-sfpplus2 vlan-ids=30&lt;/span&gt;&lt;/div&gt;&lt;div&gt;&lt;br&gt;&lt;/div&gt;&lt;div&gt;add bridge=bridge1 tagged=bridge1,&lt;span style=&quot;background-color: transparent; color: light-dark(rgb(0, 0, 0), rgb(255, 255, 255));&quot;&gt;bond1,bond2,&lt;/span&gt;&lt;span style=&quot;background-color: transparent; color: light-dark(rgb(0, 0, 0), rgb(255, 255, 255));&quot;&gt;sfp-sfpplus1,sfp-sfpplus2 vlan-ids=40&lt;/span&gt;&lt;/div&gt;&lt;div&gt;&lt;br&gt;&lt;/div&gt;&lt;div&gt;add bridge=bridge1 tagged=bridge1,&lt;span style=&quot;background-color: transparent; color: light-dark(rgb(0, 0, 0), rgb(255, 255, 255));&quot;&gt;bond1,bond2,&lt;/span&gt;&lt;span style=&quot;background-color: transparent; color: light-dark(rgb(0, 0, 0), rgb(255, 255, 255));&quot;&gt;sfp-sfpplus1,sfp-sfpplus2 untagged=ether6 vlan-ids=50&lt;/span&gt;&lt;/div&gt;&lt;div&gt;&lt;br&gt;&lt;/div&gt;&lt;div&gt;add bridge=bridge1 tagged=bridge1,&lt;span style=&quot;background-color: transparent; color: light-dark(rgb(0, 0, 0), rgb(255, 255, 255));&quot;&gt;bond1,bond2,&lt;/span&gt;&lt;span style=&quot;background-color: transparent; color: light-dark(rgb(0, 0, 0), rgb(255, 255, 255));&quot;&gt;ether5,sfp-sfpplus1,sfp-sfpplus2 vlan-ids=99&lt;/span&gt;&lt;/div&gt;&lt;/div&gt;&lt;div&gt;&lt;br&gt;&lt;/div&gt;&lt;div&gt;&lt;div&gt;/interface bridge port&lt;/div&gt;&lt;div&gt;&lt;br&gt;&lt;/div&gt;&lt;div&gt;set [find interface=ether6] pvid=50&lt;/div&gt;&lt;div&gt;&lt;div&gt;set [find interface=ether7] edge=yes&lt;/div&gt;&lt;div&gt;set [find interface=ether8] edge=yes&lt;/div&gt;&lt;/div&gt;&lt;div&gt;&lt;br&gt;&lt;/div&gt;&lt;div&gt;&lt;div&gt;&amp;nbsp;Set PVID for trunk ports&lt;/div&gt;&lt;div&gt;set [find interface=ether5] pvid=99&lt;/div&gt;&lt;div&gt;set [find interface=sfp-sfpplus1] pvid=99&lt;/div&gt;&lt;div&gt;set [find interface=sfp-sfpplus2] pvid=99&lt;/div&gt;&lt;div&gt;set [find interface=bond1] pvid=99&lt;/div&gt;&lt;/div&gt;&lt;/div&gt;&lt;div&gt;set [find interface=bond2] pvid=99&lt;/div&gt;&lt;div&gt;&lt;br&gt;&lt;/div&gt;" style="text;strokeColor=none;fillColor=none;html=1;align=left;verticalAlign=top;whiteSpace=wrap;rounded=0;fontSize=10;movable=0;resizable=0;rotatable=0;deletable=0;editable=0;locked=1;connectable=0;" parent="1" vertex="1">
          <mxGeometry x="25" y="1201" width="325" height="759" as="geometry" />
        </mxCell>
        <mxCell id="WuOIyLYNfGmpn-H2fmUs-70" value="" style="endArrow=none;html=1;rounded=0;fontSize=12;startSize=8;endSize=8;curved=1;movable=0;resizable=0;rotatable=0;deletable=0;editable=0;locked=1;connectable=0;" parent="1" edge="1">
          <mxGeometry width="50" height="50" relative="1" as="geometry">
            <mxPoint x="947" y="2180" as="sourcePoint" />
            <mxPoint x="937" y="1120" as="targetPoint" />
            <Array as="points">
              <mxPoint x="943" y="1310" />
            </Array>
          </mxGeometry>
        </mxCell>
        <mxCell id="llA-XZX_0WmRFSfMZyS1-3" value="" style="fontColor=#0066CC;verticalAlign=top;verticalLabelPosition=bottom;labelPosition=center;align=center;html=1;outlineConnect=0;fillColor=#CCCCCC;strokeColor=#6881B3;gradientColor=none;gradientDirection=north;strokeWidth=2;shape=mxgraph.networks.switch;movable=0;resizable=0;rotatable=0;deletable=0;editable=0;locked=1;connectable=0;" parent="1" vertex="1">
          <mxGeometry x="956" y="1145.65" width="78" height="20" as="geometry" />
        </mxCell>
        <mxCell id="llA-XZX_0WmRFSfMZyS1-4" value="Distribution&amp;nbsp;&lt;span style=&quot;background-color: transparent; color: light-dark(rgb(0, 0, 0), rgb(255, 255, 255));&quot;&gt;Switch LT.1&lt;/span&gt;" style="text;strokeColor=none;fillColor=none;html=1;align=center;verticalAlign=middle;whiteSpace=wrap;rounded=0;fontSize=16;movable=0;resizable=0;rotatable=0;deletable=0;editable=0;locked=1;connectable=0;" parent="1" vertex="1">
          <mxGeometry x="1030.01" y="1139.65" width="180.99" height="30" as="geometry" />
        </mxCell>
        <mxCell id="llA-XZX_0WmRFSfMZyS1-5" value="# Mikrotik CSS326" style="text;strokeColor=none;fillColor=none;html=1;align=center;verticalAlign=middle;whiteSpace=wrap;rounded=0;fontSize=16;movable=0;resizable=0;rotatable=0;deletable=0;editable=0;locked=1;connectable=0;" parent="1" vertex="1">
          <mxGeometry x="1050.01" y="1165.65" width="135" height="30" as="geometry" />
        </mxCell>
        <mxCell id="llA-XZX_0WmRFSfMZyS1-7" value="Name&lt;span style=&quot;white-space: pre;&quot;&gt;&#x9;&lt;/span&gt;&lt;span style=&quot;white-space: pre;&quot;&gt;&#x9;&lt;/span&gt;&lt;span style=&quot;white-space: pre;&quot;&gt;&#x9;Port&lt;span style=&quot;white-space: pre;&quot;&gt;&#x9;&lt;/span&gt;&lt;span style=&quot;white-space: pre;&quot;&gt;&#x9;&lt;/span&gt;&lt;/span&gt;PVID&lt;span style=&quot;white-space: pre;&quot;&gt;&#x9;&lt;/span&gt;Tagged VLANs&lt;span style=&quot;white-space: pre;&quot;&gt;&#x9;&lt;/span&gt;Untagged VLANs&lt;span style=&quot;white-space: pre;&quot;&gt;&#x9;&lt;/span&gt;Description&lt;div&gt;&lt;br&gt;&lt;/div&gt;&lt;div&gt;Core Uplink 1&lt;span style=&quot;white-space: pre;&quot;&gt;&#x9;&lt;/span&gt;&lt;span style=&quot;white-space: pre;&quot;&gt;&#x9;1&lt;span style=&quot;white-space: pre;&quot;&gt;&#x9;&lt;/span&gt;&lt;span style=&quot;white-space: pre;&quot;&gt;&#x9;&lt;/span&gt;&lt;/span&gt;99&lt;span style=&quot;white-space: pre;&quot;&gt;&#x9;&lt;/span&gt;&lt;span style=&quot;white-space: pre;&quot;&gt;&#x9;&lt;/span&gt;&lt;span style=&quot;background-color: transparent;&quot;&gt;10,20,30,40,50,99&lt;span style=&quot;white-space: pre;&quot;&gt;&#x9;&lt;span style=&quot;white-space: pre;&quot;&gt;&#x9;&lt;/span&gt;&lt;span style=&quot;white-space: pre;&quot;&gt;&#x9;&lt;/span&gt;&lt;span style=&quot;white-space: pre;&quot;&gt;&#x9;&lt;/span&gt;&lt;span style=&quot;white-space: pre;&quot;&gt;&#x9;&lt;/span&gt;Trunk to Core&lt;/span&gt;&lt;/span&gt;&lt;/div&gt;&lt;div&gt;&lt;span style=&quot;white-space: pre;&quot;&gt;&#x9;&lt;/span&gt;&lt;br&gt;&lt;/div&gt;&lt;div&gt;Core Uplink 2&lt;span style=&quot;white-space: pre;&quot;&gt;&#x9;&lt;/span&gt;&lt;span style=&quot;white-space: pre;&quot;&gt;&#x9;2&lt;span style=&quot;white-space: pre;&quot;&gt;&#x9;&lt;/span&gt;&lt;span style=&quot;white-space: pre;&quot;&gt;&#x9;&lt;/span&gt;&lt;/span&gt;99&lt;span style=&quot;white-space: pre;&quot;&gt;&#x9;&lt;/span&gt;&lt;span style=&quot;white-space: pre;&quot;&gt;&#x9;&lt;/span&gt;&lt;span style=&quot;background-color: transparent;&quot;&gt;10,20,30,40,50,99&lt;/span&gt;&lt;span style=&quot;background-color: transparent; color: light-dark(rgb(0, 0, 0), rgb(255, 255, 255)); white-space: pre;&quot;&gt;&#x9;&lt;span style=&quot;white-space: pre;&quot;&gt;&#x9;&lt;/span&gt;&lt;span style=&quot;white-space: pre;&quot;&gt;&#x9;&lt;/span&gt;&lt;span style=&quot;white-space: pre;&quot;&gt;&#x9;&lt;/span&gt;&lt;span style=&quot;white-space: pre;&quot;&gt;&#x9;&lt;/span&gt;&lt;/span&gt;&lt;span style=&quot;white-space: pre; background-color: transparent; color: light-dark(rgb(0, 0, 0), rgb(255, 255, 255));&quot;&gt;Trunk to Core&lt;/span&gt;&lt;span style=&quot;background-color: transparent; color: light-dark(rgb(0, 0, 0), rgb(255, 255, 255)); white-space: pre;&quot;&gt;&#x9;&lt;/span&gt;&lt;/div&gt;&lt;div&gt;&lt;span style=&quot;background-color: transparent; color: light-dark(rgb(0, 0, 0), rgb(255, 255, 255));&quot;&gt;&lt;br&gt;&lt;/span&gt;&lt;/div&gt;&lt;div&gt;&lt;span style=&quot;background-color: transparent; color: light-dark(rgb(0, 0, 0), rgb(255, 255, 255));&quot;&gt;TP-Link&amp;nbsp;&lt;/span&gt;&lt;span style=&quot;background-color: transparent; color: light-dark(rgb(0, 0, 0), rgb(255, 255, 255)); white-space: pre;&quot;&gt;SW 1&lt;span style=&quot;white-space: pre;&quot;&gt;&#x9;&lt;/span&gt;&lt;span style=&quot;white-space: pre;&quot;&gt;&#x9;&lt;/span&gt;3&lt;span style=&quot;white-space: pre;&quot;&gt;&#x9;&lt;/span&gt;&lt;span style=&quot;white-space: pre;&quot;&gt;&#x9;&lt;/span&gt;&lt;/span&gt;&lt;span style=&quot;background-color: transparent; color: light-dark(rgb(0, 0, 0), rgb(255, 255, 255));&quot;&gt;99&lt;/span&gt;&lt;span style=&quot;background-color: transparent; color: light-dark(rgb(0, 0, 0), rgb(255, 255, 255)); white-space: pre;&quot;&gt;&#x9;&lt;/span&gt;&lt;span style=&quot;background-color: transparent; color: light-dark(rgb(0, 0, 0), rgb(255, 255, 255)); white-space: pre;&quot;&gt;&#x9;&lt;/span&gt;&lt;span style=&quot;background-color: transparent; color: light-dark(rgb(0, 0, 0), rgb(255, 255, 255));&quot;&gt;10,20,30,40,50,99&lt;/span&gt;&lt;span style=&quot;background-color: transparent; color: light-dark(rgb(0, 0, 0), rgb(255, 255, 255)); white-space: pre;&quot;&gt;&#x9;&lt;span style=&quot;white-space: pre;&quot;&gt;&#x9;&lt;/span&gt;&lt;span style=&quot;white-space: pre;&quot;&gt;&#x9;&lt;/span&gt;&lt;span style=&quot;white-space: pre;&quot;&gt;&#x9;&lt;/span&gt;&lt;span style=&quot;white-space: pre;&quot;&gt;&#x9;&lt;/span&gt;&lt;/span&gt;&lt;span style=&quot;background-color: transparent; color: light-dark(rgb(0, 0, 0), rgb(255, 255, 255)); white-space: pre;&quot;&gt;Trunk to TP-Link SW1&lt;/span&gt;&lt;/div&gt;&lt;div&gt;&lt;br&gt;&lt;/div&gt;&lt;div&gt;TP-Link SW 1B&lt;span style=&quot;white-space: pre;&quot;&gt;&#x9;&lt;/span&gt;&lt;span style=&quot;white-space: pre;&quot;&gt;4&lt;span style=&quot;white-space: pre;&quot;&gt;&#x9;&lt;/span&gt;&lt;span style=&quot;white-space: pre;&quot;&gt;&#x9;&lt;/span&gt;&lt;/span&gt;99&lt;span style=&quot;white-space: pre;&quot;&gt;&#x9;&lt;/span&gt;&lt;span style=&quot;white-space: pre;&quot;&gt;&#x9;&lt;/span&gt;&lt;span style=&quot;background-color: transparent;&quot;&gt;10,20,30,40,50,99&lt;/span&gt;&lt;span style=&quot;background-color: transparent; color: light-dark(rgb(0, 0, 0), rgb(255, 255, 255)); white-space: pre;&quot;&gt;&#x9;&lt;span style=&quot;white-space: pre;&quot;&gt;&#x9;&lt;/span&gt;&lt;span style=&quot;white-space: pre;&quot;&gt;&#x9;&lt;/span&gt;&lt;span style=&quot;white-space: pre;&quot;&gt;&#x9;&lt;span style=&quot;white-space: pre;&quot;&gt;&#x9;&lt;/span&gt;&lt;/span&gt;&lt;/span&gt;&lt;span style=&quot;white-space: pre; background-color: transparent; color: light-dark(rgb(0, 0, 0), rgb(255, 255, 255));&quot;&gt;Trunk to TP-Link Sw1B&lt;/span&gt;&lt;/div&gt;&lt;div&gt;&lt;span style=&quot;white-space: pre; background-color: transparent; color: light-dark(rgb(0, 0, 0), rgb(255, 255, 255));&quot;&gt;&lt;br&gt;&lt;/span&gt;&lt;/div&gt;&lt;div&gt;&lt;div&gt;&lt;span style=&quot;background-color: transparent; color: light-dark(rgb(0, 0, 0), rgb(255, 255, 255));&quot;&gt;TP-Link&amp;nbsp;&lt;/span&gt;&lt;span style=&quot;background-color: transparent; color: light-dark(rgb(0, 0, 0), rgb(255, 255, 255)); white-space: pre;&quot;&gt;SW &lt;/span&gt;2&lt;span style=&quot;background-color: transparent; color: light-dark(rgb(0, 0, 0), rgb(255, 255, 255)); white-space: pre;&quot;&gt;&#x9;&#x9;&lt;/span&gt;5&lt;span style=&quot;background-color: transparent; color: light-dark(rgb(0, 0, 0), rgb(255, 255, 255)); white-space: pre;&quot;&gt;&#x9;&#x9;&lt;/span&gt;&lt;span style=&quot;background-color: transparent; color: light-dark(rgb(0, 0, 0), rgb(255, 255, 255));&quot;&gt;99&lt;/span&gt;&lt;span style=&quot;background-color: transparent; color: light-dark(rgb(0, 0, 0), rgb(255, 255, 255)); white-space: pre;&quot;&gt;&#x9;&lt;/span&gt;&lt;span style=&quot;background-color: transparent; color: light-dark(rgb(0, 0, 0), rgb(255, 255, 255)); white-space: pre;&quot;&gt;&#x9;&lt;/span&gt;&lt;span style=&quot;background-color: transparent; color: light-dark(rgb(0, 0, 0), rgb(255, 255, 255));&quot;&gt;10,20,30,40,50,99&lt;/span&gt;&lt;span style=&quot;background-color: transparent; color: light-dark(rgb(0, 0, 0), rgb(255, 255, 255)); white-space: pre;&quot;&gt;&#x9;&lt;span style=&quot;white-space: pre;&quot;&gt;&#x9;&lt;/span&gt;&lt;span style=&quot;white-space: pre;&quot;&gt;&#x9;&lt;/span&gt;&lt;span style=&quot;white-space: pre;&quot;&gt;&#x9;&lt;/span&gt;&lt;span style=&quot;white-space: pre;&quot;&gt;&#x9;&lt;/span&gt;&lt;/span&gt;&lt;span style=&quot;background-color: transparent; color: light-dark(rgb(0, 0, 0), rgb(255, 255, 255)); white-space: pre;&quot;&gt;Trunk to TP-Link SW2&lt;/span&gt;&lt;/div&gt;&lt;div&gt;&lt;br&gt;&lt;/div&gt;&lt;div&gt;TP-Link SW 2B&lt;span style=&quot;white-space: pre;&quot;&gt;&#x9;&lt;/span&gt;&lt;span style=&quot;white-space: pre;&quot;&gt;6&lt;span style=&quot;white-space: pre;&quot;&gt;&#x9;&lt;/span&gt;&lt;span style=&quot;white-space: pre;&quot;&gt;&#x9;&lt;/span&gt;&lt;/span&gt;99&lt;span style=&quot;white-space: pre;&quot;&gt;&#x9;&lt;/span&gt;&lt;span style=&quot;white-space: pre;&quot;&gt;&#x9;&lt;/span&gt;&lt;span style=&quot;background-color: transparent;&quot;&gt;10,20,30,40,50,99&lt;/span&gt;&lt;span style=&quot;background-color: transparent; color: light-dark(rgb(0, 0, 0), rgb(255, 255, 255)); white-space: pre;&quot;&gt;&#x9;&lt;span style=&quot;white-space: pre;&quot;&gt;&#x9;&lt;/span&gt;&lt;span style=&quot;white-space: pre;&quot;&gt;&#x9;&lt;/span&gt;&lt;span style=&quot;white-space: pre;&quot;&gt;&#x9;&lt;span style=&quot;white-space: pre;&quot;&gt;&#x9;&lt;/span&gt;&lt;/span&gt;&lt;/span&gt;&lt;span style=&quot;white-space: pre; background-color: transparent; color: light-dark(rgb(0, 0, 0), rgb(255, 255, 255));&quot;&gt;Trunk to TP-Link Sw2B&lt;/span&gt;&lt;/div&gt;&lt;/div&gt;&lt;div&gt;&lt;span style=&quot;white-space: pre; background-color: transparent; color: light-dark(rgb(0, 0, 0), rgb(255, 255, 255));&quot;&gt;&lt;br&gt;&lt;/span&gt;&lt;/div&gt;&lt;div&gt;AP staff + Guest1&lt;span style=&quot;white-space: pre;&quot;&gt;&#x9;&lt;/span&gt;7&lt;span style=&quot;white-space: pre;&quot;&gt;&#x9;&lt;/span&gt;&lt;span style=&quot;white-space: pre;&quot;&gt;&#x9;&lt;/span&gt;30&lt;span style=&quot;white-space: pre;&quot;&gt;&#x9;&lt;/span&gt;&lt;span style=&quot;white-space: pre;&quot;&gt;&#x9;&lt;/span&gt;&lt;span style=&quot;background-color: transparent;&quot;&gt;30,40&lt;span style=&quot;white-space: pre;&quot;&gt;&#x9;&lt;/span&gt;&lt;span style=&quot;white-space: pre;&quot;&gt;&#x9;&lt;/span&gt;&lt;span style=&quot;white-space: pre;&quot;&gt;&#x9;&lt;span style=&quot;white-space: pre;&quot;&gt;&#x9;&lt;/span&gt;&lt;span style=&quot;white-space: pre;&quot;&gt;&#x9;&lt;/span&gt;&lt;span style=&quot;white-space: pre;&quot;&gt;&#x9;&lt;/span&gt;&lt;span style=&quot;white-space: pre;&quot;&gt;&#x9;&lt;/span&gt;AP with VLAN Guest+Staff&lt;/span&gt;&lt;/span&gt;&lt;/div&gt;&lt;div&gt;&lt;br&gt;&lt;/div&gt;&lt;div&gt;AP staff + Guest 2&lt;span style=&quot;white-space: pre;&quot;&gt;&#x9;8&lt;span style=&quot;white-space: pre;&quot;&gt;&#x9;&lt;/span&gt;&lt;span style=&quot;white-space: pre;&quot;&gt;&#x9;&lt;/span&gt;&lt;/span&gt;30&lt;span style=&quot;white-space: pre;&quot;&gt;&#x9;&lt;/span&gt;&lt;span style=&quot;white-space: pre;&quot;&gt;&#x9;&lt;/span&gt;&lt;span style=&quot;background-color: transparent;&quot;&gt;30,40&lt;span style=&quot;white-space: pre;&quot;&gt;&#x9;&lt;/span&gt;&lt;span style=&quot;white-space: pre;&quot;&gt;&#x9;&lt;/span&gt;&lt;span style=&quot;white-space: pre;&quot;&gt;&#x9;&lt;/span&gt;&lt;span style=&quot;white-space: pre;&quot;&gt;&#x9;&lt;/span&gt;&lt;span style=&quot;white-space: pre;&quot;&gt;&#x9;&lt;/span&gt;&lt;span style=&quot;white-space: pre;&quot;&gt;&#x9;&lt;/span&gt;&lt;span style=&quot;white-space: pre;&quot;&gt;&#x9;&lt;/span&gt;&lt;/span&gt;&lt;span style=&quot;white-space: pre; background-color: transparent; color: light-dark(rgb(0, 0, 0), rgb(255, 255, 255));&quot;&gt;AP with VLAN Guest+Staff&lt;/span&gt;&lt;/div&gt;&lt;div&gt;&lt;br&gt;&lt;/div&gt;&lt;div&gt;User&lt;span style=&quot;white-space: pre;&quot;&gt;&#x9;&lt;/span&gt;&lt;span style=&quot;white-space: pre;&quot;&gt;&#x9;&lt;/span&gt;&lt;span style=&quot;white-space: pre;&quot;&gt;&#x9;&lt;/span&gt;9&lt;span style=&quot;white-space: pre;&quot;&gt;-24&lt;span style=&quot;white-space: pre;&quot;&gt;&#x9;&lt;span style=&quot;white-space: pre;&quot;&gt;&#x9;&lt;/span&gt;&lt;/span&gt;&lt;/span&gt;30&lt;span style=&quot;white-space: pre;&quot;&gt;&#x9;&lt;/span&gt;&lt;span style=&quot;white-space: pre;&quot;&gt;&#x9;&lt;span style=&quot;white-space: pre;&quot;&gt;&#x9;&lt;/span&gt;&lt;span style=&quot;white-space: pre;&quot;&gt;&#x9;&lt;/span&gt;&lt;span style=&quot;white-space: pre;&quot;&gt;&#x9;&lt;/span&gt;&lt;span style=&quot;white-space: pre;&quot;&gt;&#x9;&lt;/span&gt;3&lt;/span&gt;0&lt;span style=&quot;white-space: pre;&quot;&gt;&#x9;&lt;/span&gt;&lt;span style=&quot;white-space: pre;&quot;&gt;&#x9;&lt;/span&gt;&lt;span style=&quot;white-space: pre;&quot;&gt;&#x9;&lt;/span&gt;&lt;span style=&quot;white-space: pre;&quot;&gt;&#x9;&lt;/span&gt;User PC&lt;/div&gt;" style="text;strokeColor=none;fillColor=none;html=1;align=left;verticalAlign=top;whiteSpace=wrap;rounded=0;fontSize=10;movable=0;resizable=0;rotatable=0;deletable=0;editable=0;locked=1;connectable=0;" parent="1" vertex="1">
          <mxGeometry x="956" y="1221" width="497" height="249" as="geometry" />
        </mxCell>
        <mxCell id="llA-XZX_0WmRFSfMZyS1-10" value="" style="shape=curlyBracket;whiteSpace=wrap;html=1;rounded=1;flipH=1;labelPosition=right;verticalLabelPosition=middle;align=left;verticalAlign=middle;size=0.5;movable=0;resizable=0;rotatable=0;deletable=0;editable=0;locked=1;connectable=0;" parent="1" vertex="1">
          <mxGeometry x="1377.9" y="1258" width="25.1" height="24" as="geometry" />
        </mxCell>
        <mxCell id="llA-XZX_0WmRFSfMZyS1-11" value="Redudancy RSTP&lt;br&gt;LAG (802.3ad)" style="text;strokeColor=none;fillColor=none;html=1;align=center;verticalAlign=middle;whiteSpace=wrap;rounded=0;fontSize=10;movable=0;resizable=0;rotatable=0;deletable=0;editable=0;locked=1;connectable=0;" parent="1" vertex="1">
          <mxGeometry x="1400" y="1253" width="90" height="30" as="geometry" />
        </mxCell>
        <mxCell id="llA-XZX_0WmRFSfMZyS1-13" value="&lt;article data-turn=&quot;assistant&quot; data-scroll-anchor=&quot;true&quot; data-testid=&quot;conversation-turn-2&quot; dir=&quot;auto&quot; tabindex=&quot;-1&quot; class=&quot;text-token-text-primary w-full focus:outline-none scroll-mt-[calc(var(--header-height)+min(200px,max(70px,20svh)))]&quot;&gt;&lt;div class=&quot;text-base my-auto mx-auto pb-10 [--thread-content-margin:--spacing(4)] @[37rem]:[--thread-content-margin:--spacing(6)] @[72rem]:[--thread-content-margin:--spacing(16)] px-(--thread-content-margin)&quot;&gt;&lt;div tabindex=&quot;-1&quot; class=&quot;[--thread-content-max-width:32rem] @[34rem]:[--thread-content-max-width:40rem] @[64rem]:[--thread-content-max-width:48rem] mx-auto max-w-(--thread-content-max-width) flex-1 group/turn-messages focus-visible:outline-hidden relative flex w-full min-w-0 flex-col agent-turn&quot;&gt;&lt;div class=&quot;flex max-w-full flex-col grow&quot;&gt;&lt;div data-message-model-slug=&quot;gpt-4o&quot; class=&quot;min-h-8 text-message relative flex w-full flex-col items-end gap-2 text-start break-words whitespace-normal [.text-message+&amp;amp;]:mt-5&quot; dir=&quot;auto&quot; data-message-id=&quot;c37325d4-9fb3-4be9-bc7e-89059493dcfb&quot; data-message-author-role=&quot;assistant&quot;&gt;&lt;div class=&quot;flex w-full flex-col gap-1 empty:hidden first:pt-[3px]&quot;&gt;&lt;div class=&quot;markdown prose dark:prose-invert w-full break-words dark&quot;&gt;&lt;p data-is-only-node=&quot;&quot; data-is-last-node=&quot;&quot; data-end=&quot;156&quot; data-start=&quot;0&quot;&gt;&lt;span style=&quot;background-color: transparent; color: light-dark(rgb(0, 0, 0), rgb(255, 255, 255));&quot;&gt;Recommendation: Enable RSTP &amp;amp; LACP for redudancy port and configure Bridge Priority on the CSS326 to ensure proper failover path functionality in case the main core uplink goes down.&lt;/span&gt;&lt;/p&gt;&lt;p data-is-only-node=&quot;&quot; data-is-last-node=&quot;&quot; data-end=&quot;156&quot; data-start=&quot;0&quot;&gt;Bridge Priority Settings&lt;/p&gt;&lt;p data-is-only-node=&quot;&quot; data-is-last-node=&quot;&quot; data-end=&quot;156&quot; data-start=&quot;0&quot;&gt;&amp;nbsp; &amp;nbsp; Switch -&amp;gt; Bridge -&amp;gt; Settings&lt;/p&gt;&lt;p data-is-only-node=&quot;&quot; data-is-last-node=&quot;&quot; data-end=&quot;156&quot; data-start=&quot;0&quot;&gt;&lt;span style=&quot;white-space: pre;&quot;&gt;&#x9;&lt;/span&gt;Set :&amp;nbsp;&lt;/p&gt;&lt;p data-is-only-node=&quot;&quot; data-is-last-node=&quot;&quot; data-end=&quot;156&quot; data-start=&quot;0&quot;&gt;&lt;span style=&quot;white-space: pre;&quot;&gt;&#x9;&lt;/span&gt;&lt;span style=&quot;white-space: pre;&quot;&gt;&#x9;&lt;/span&gt;Brigde priority: 40960 (0xA000)&lt;br&gt;&lt;/p&gt;&lt;p data-is-only-node=&quot;&quot; data-is-last-node=&quot;&quot; data-end=&quot;156&quot; data-start=&quot;0&quot;&gt;&lt;span style=&quot;white-space: pre;&quot;&gt;&#x9;&lt;/span&gt;Also :&amp;nbsp;&lt;br&gt;&lt;/p&gt;&lt;p data-is-only-node=&quot;&quot; data-is-last-node=&quot;&quot; data-end=&quot;156&quot; data-start=&quot;0&quot;&gt;&lt;span style=&quot;white-space: pre;&quot;&gt;&#x9;&lt;/span&gt;&lt;span style=&quot;white-space: pre;&quot;&gt;&#x9;&lt;/span&gt;Ensure RSTP is enbled&lt;br&gt;&lt;/p&gt;&lt;p data-is-only-node=&quot;&quot; data-is-last-node=&quot;&quot; data-end=&quot;156&quot; data-start=&quot;0&quot;&gt;&lt;span style=&quot;white-space: pre;&quot;&gt;&#x9;&lt;/span&gt;&lt;span style=&quot;white-space: pre;&quot;&gt;&#x9;&lt;/span&gt;For LACP ports (uplinks), RSTP should be active on those ports too.&lt;br&gt;&lt;/p&gt;&lt;/div&gt;&lt;/div&gt;&lt;/div&gt;&lt;/div&gt;&lt;/div&gt;&lt;/div&gt;&lt;/article&gt;&lt;div class=&quot;pointer-events-none h-px w-px&quot; data-edge=&quot;true&quot; aria-hidden=&quot;true&quot;&gt;&lt;/div&gt;" style="text;strokeColor=none;fillColor=none;html=1;align=left;verticalAlign=top;whiteSpace=wrap;rounded=0;fontSize=10;movable=0;resizable=0;rotatable=0;deletable=0;editable=0;locked=1;connectable=0;" parent="1" vertex="1">
          <mxGeometry x="956" y="1454" width="527" height="30" as="geometry" />
        </mxCell>
        <mxCell id="llA-XZX_0WmRFSfMZyS1-20" value="" style="shape=curlyBracket;whiteSpace=wrap;html=1;rounded=1;flipH=1;labelPosition=right;verticalLabelPosition=middle;align=left;verticalAlign=middle;size=0.5;movable=0;resizable=0;rotatable=0;deletable=0;editable=0;locked=1;connectable=0;" parent="1" vertex="1">
          <mxGeometry x="1419" y="1304" width="25.1" height="24" as="geometry" />
        </mxCell>
        <mxCell id="llA-XZX_0WmRFSfMZyS1-22" value="" style="shape=curlyBracket;whiteSpace=wrap;html=1;rounded=1;flipH=1;labelPosition=right;verticalLabelPosition=middle;align=left;verticalAlign=middle;size=0.5;movable=0;resizable=0;rotatable=0;deletable=0;editable=0;locked=1;connectable=0;" parent="1" vertex="1">
          <mxGeometry x="1421" y="1352" width="25.1" height="24" as="geometry" />
        </mxCell>
        <mxCell id="llA-XZX_0WmRFSfMZyS1-24" value="" style="fontColor=#0066CC;verticalAlign=top;verticalLabelPosition=bottom;labelPosition=center;align=center;html=1;outlineConnect=0;fillColor=#CCCCCC;strokeColor=#6881B3;gradientColor=none;gradientDirection=north;strokeWidth=2;shape=mxgraph.networks.switch;movable=0;resizable=0;rotatable=0;deletable=0;editable=0;locked=1;connectable=0;" parent="1" vertex="1">
          <mxGeometry x="956" y="1700" width="78" height="20" as="geometry" />
        </mxCell>
        <mxCell id="llA-XZX_0WmRFSfMZyS1-25" value="Smart&amp;nbsp;&lt;span style=&quot;color: light-dark(rgb(0, 0, 0), rgb(255, 255, 255)); background-color: transparent;&quot;&gt;Switch&amp;nbsp;&lt;/span&gt;&lt;span style=&quot;background-color: transparent; color: light-dark(rgb(0, 0, 0), rgb(255, 255, 255));&quot;&gt;LT.1 A&lt;/span&gt;" style="text;strokeColor=none;fillColor=none;html=1;align=center;verticalAlign=middle;whiteSpace=wrap;rounded=0;fontSize=16;movable=0;resizable=0;rotatable=0;deletable=0;editable=0;locked=1;connectable=0;" parent="1" vertex="1">
          <mxGeometry x="1033.0900000000001" y="1693" width="159.9" height="30" as="geometry" />
        </mxCell>
        <mxCell id="llA-XZX_0WmRFSfMZyS1-26" value="Port 1-2" style="edgeLabel;html=1;align=center;verticalAlign=middle;resizable=0;points=[];fontSize=12;movable=0;rotatable=0;deletable=0;editable=0;locked=1;connectable=0;" parent="1" connectable="0" vertex="1">
          <mxGeometry x="66" y="779" as="geometry" />
        </mxCell>
        <mxCell id="llA-XZX_0WmRFSfMZyS1-27" value="Port 1-2" style="edgeLabel;html=1;align=center;verticalAlign=middle;resizable=0;points=[];fontSize=12;movable=0;rotatable=0;deletable=0;editable=0;locked=1;connectable=0;" parent="1" connectable="0" vertex="1">
          <mxGeometry x="314.45" y="780" as="geometry" />
        </mxCell>
        <mxCell id="llA-XZX_0WmRFSfMZyS1-28" value="Port 1-2" style="edgeLabel;html=1;align=center;verticalAlign=middle;resizable=0;points=[];fontSize=12;movable=0;rotatable=0;deletable=0;editable=0;locked=1;connectable=0;" parent="1" connectable="0" vertex="1">
          <mxGeometry x="543.47" y="780" as="geometry" />
        </mxCell>
        <mxCell id="llA-XZX_0WmRFSfMZyS1-29" value="Port 1-2" style="edgeLabel;html=1;align=center;verticalAlign=middle;resizable=0;points=[];fontSize=12;movable=0;rotatable=0;deletable=0;editable=0;locked=1;connectable=0;" parent="1" connectable="0" vertex="1">
          <mxGeometry x="772" y="780" as="geometry" />
        </mxCell>
        <mxCell id="llA-XZX_0WmRFSfMZyS1-33" value="1. Enable 802.1Q VLAN&lt;div&gt;&lt;span style=&quot;white-space: pre;&quot;&gt;&#x9;&lt;/span&gt;&lt;span style=&quot;background-color: transparent; color: light-dark(rgb(0, 0, 0), rgb(255, 255, 255));&quot;&gt;L2 Features → VLAN → 802.1Q VLAN Config&lt;/span&gt;&lt;br&gt;&lt;/div&gt;&lt;div&gt;&lt;span style=&quot;background-color: transparent; color: light-dark(rgb(0, 0, 0), rgb(255, 255, 255));&quot;&gt;&lt;span style=&quot;white-space: pre;&quot;&gt;&#x9;&lt;span style=&quot;white-space: pre;&quot;&gt;&#x9;&lt;/span&gt;&lt;/span&gt;-&amp;nbsp;&lt;/span&gt;&lt;span style=&quot;background-color: transparent; color: light-dark(rgb(0, 0, 0), rgb(255, 255, 255));&quot;&gt;Enable VLAN globally via the checkbox.&lt;/span&gt;&lt;span style=&quot;background-color: transparent; color: light-dark(rgb(0, 0, 0), rgb(255, 255, 255));&quot;&gt;&lt;br&gt;&lt;/span&gt;&lt;/div&gt;&lt;div&gt;&lt;span style=&quot;background-color: transparent; color: light-dark(rgb(0, 0, 0), rgb(255, 255, 255));&quot;&gt;&lt;br&gt;&lt;/span&gt;&lt;/div&gt;&lt;div&gt;2. Create VLANs&lt;span style=&quot;background-color: transparent; color: light-dark(rgb(0, 0, 0), rgb(255, 255, 255));&quot;&gt;&lt;/span&gt;&lt;/div&gt;&lt;div&gt;&lt;span style=&quot;white-space: pre;&quot;&gt;&#x9;&lt;/span&gt;&lt;span style=&quot;background-color: transparent; color: light-dark(rgb(0, 0, 0), rgb(255, 255, 255));&quot;&gt;Still in &lt;/span&gt;&lt;strong style=&quot;background-color: transparent; color: light-dark(rgb(0, 0, 0), rgb(255, 255, 255));&quot; data-end=&quot;962&quot; data-start=&quot;940&quot;&gt;802.1Q VLAN Config&lt;/strong&gt;&lt;span style=&quot;background-color: transparent; color: light-dark(rgb(0, 0, 0), rgb(255, 255, 255));&quot;&gt;, create:&lt;/span&gt;&lt;br&gt;&lt;/div&gt;&lt;div&gt;&lt;span style=&quot;background-color: transparent; color: light-dark(rgb(0, 0, 0), rgb(255, 255, 255));&quot;&gt;&lt;span style=&quot;white-space: pre;&quot;&gt;&#x9;&lt;/span&gt;&lt;span style=&quot;white-space: pre;&quot;&gt;&#x9;&lt;/span&gt;-&amp;nbsp;&lt;/span&gt;&lt;strong style=&quot;background-color: transparent; color: light-dark(rgb(0, 0, 0), rgb(255, 255, 255));&quot; data-end=&quot;986&quot; data-start=&quot;975&quot;&gt;VLAN 30&lt;/strong&gt;&lt;span style=&quot;background-color: transparent; color: light-dark(rgb(0, 0, 0), rgb(255, 255, 255));&quot;&gt;: for staff users { tagged port : 1,2 | untagged port : 3-16 }&lt;/span&gt;&lt;span style=&quot;background-color: transparent; color: light-dark(rgb(0, 0, 0), rgb(255, 255, 255));&quot;&gt;&lt;br&gt;&lt;/span&gt;&lt;/div&gt;&lt;div&gt;&lt;span style=&quot;background-color: transparent; color: light-dark(rgb(0, 0, 0), rgb(255, 255, 255));&quot;&gt;&lt;span style=&quot;white-space: pre;&quot;&gt;&#x9;&lt;/span&gt;&lt;span style=&quot;white-space: pre;&quot;&gt;&#x9;&lt;/span&gt;-&amp;nbsp;&lt;/span&gt;&lt;strong style=&quot;background-color: transparent; color: light-dark(rgb(0, 0, 0), rgb(255, 255, 255));&quot; data-end=&quot;1017&quot; data-start=&quot;1006&quot;&gt;VLAN 99&lt;/strong&gt;&lt;span style=&quot;background-color: transparent; color: light-dark(rgb(0, 0, 0), rgb(255, 255, 255));&quot;&gt;: for inter-switch trunk/native&amp;nbsp;&lt;/span&gt;&lt;span style=&quot;background-color: transparent; color: light-dark(rgb(0, 0, 0), rgb(255, 255, 255));&quot;&gt;{ tagged port : 1,2 | untagged port : - }&lt;/span&gt;&lt;span style=&quot;background-color: transparent; color: light-dark(rgb(0, 0, 0), rgb(255, 255, 255));&quot;&gt;&lt;br&gt;&lt;/span&gt;&lt;/div&gt;&lt;div&gt;&lt;span style=&quot;background-color: transparent; color: light-dark(rgb(0, 0, 0), rgb(255, 255, 255));&quot;&gt;&lt;br&gt;&lt;/span&gt;&lt;/div&gt;&lt;div&gt;3. Configure PVIDs&lt;span style=&quot;background-color: transparent; color: light-dark(rgb(0, 0, 0), rgb(255, 255, 255));&quot;&gt;&lt;/span&gt;&lt;/div&gt;&lt;div&gt;&lt;span style=&quot;white-space: pre;&quot;&gt;&#x9;&lt;/span&gt;&lt;span style=&quot;background-color: transparent; color: light-dark(rgb(0, 0, 0), rgb(255, 255, 255));&quot;&gt;L2 Features → VLAN → 802.1Q PVID Setting&lt;/span&gt;&lt;br&gt;&lt;/div&gt;&lt;div&gt;&lt;span style=&quot;background-color: transparent; color: light-dark(rgb(0, 0, 0), rgb(255, 255, 255));&quot;&gt;&lt;span style=&quot;white-space: pre;&quot;&gt;&#x9;&lt;/span&gt;&lt;span style=&quot;white-space: pre;&quot;&gt;&#x9;&lt;/span&gt;port&lt;span style=&quot;white-space: pre;&quot;&gt;&#x9;&lt;/span&gt;&lt;span style=&quot;white-space: pre;&quot;&gt;&#x9;&lt;/span&gt;PVID&lt;br&gt;&lt;/span&gt;&lt;/div&gt;&lt;div&gt;&lt;span style=&quot;background-color: transparent; color: light-dark(rgb(0, 0, 0), rgb(255, 255, 255));&quot;&gt;&lt;span style=&quot;white-space: pre;&quot;&gt;&#x9;&lt;/span&gt;&lt;span style=&quot;white-space: pre;&quot;&gt;&#x9;&lt;/span&gt;1-2&lt;span style=&quot;white-space: pre;&quot;&gt;&#x9;&lt;/span&gt;&lt;span style=&quot;white-space: pre;&quot;&gt;&#x9;&lt;/span&gt;99&lt;br&gt;&lt;/span&gt;&lt;/div&gt;&lt;div&gt;&lt;span style=&quot;background-color: transparent; color: light-dark(rgb(0, 0, 0), rgb(255, 255, 255));&quot;&gt;&lt;span style=&quot;white-space: pre;&quot;&gt;&#x9;&lt;/span&gt;&lt;span style=&quot;white-space: pre;&quot;&gt;&#x9;&lt;/span&gt;3-16&lt;span style=&quot;white-space: pre;&quot;&gt;&#x9;&lt;/span&gt;&lt;span style=&quot;white-space: pre;&quot;&gt;&#x9;&lt;/span&gt;30&lt;/span&gt;&lt;span style=&quot;background-color: transparent; color: light-dark(rgb(0, 0, 0), rgb(255, 255, 255)); white-space: pre;&quot;&gt;&#x9;&lt;/span&gt;&lt;/div&gt;&lt;div&gt;&lt;span style=&quot;background-color: transparent; color: light-dark(rgb(0, 0, 0), rgb(255, 255, 255));&quot;&gt;&lt;span style=&quot;white-space: pre;&quot;&gt;&#x9;&lt;/span&gt;✅ Make sure &quot;Ingress Check&quot; is &lt;/span&gt;&lt;strong style=&quot;background-color: transparent; color: light-dark(rgb(0, 0, 0), rgb(255, 255, 255));&quot; data-end=&quot;1434&quot; data-start=&quot;1423&quot;&gt;enabled&lt;/strong&gt;&lt;span style=&quot;background-color: transparent; color: light-dark(rgb(0, 0, 0), rgb(255, 255, 255));&quot;&gt; on all ports to apply VLAN filtering properly.&lt;/span&gt;&lt;/div&gt;&lt;div&gt;&lt;span style=&quot;background-color: transparent; color: light-dark(rgb(0, 0, 0), rgb(255, 255, 255));&quot;&gt;&lt;br&gt;&lt;/span&gt;&lt;/div&gt;&lt;div&gt;4. Configure LAG (Link Aggregation Group)&lt;span style=&quot;background-color: transparent; color: light-dark(rgb(0, 0, 0), rgb(255, 255, 255));&quot;&gt;&lt;/span&gt;&lt;/div&gt;&lt;div&gt;&lt;div&gt;&lt;span style=&quot;background-color: transparent; color: light-dark(rgb(0, 0, 0), rgb(255, 255, 255));&quot;&gt;&lt;span style=&quot;white-space: pre;&quot;&gt;&#x9;&lt;/span&gt;L2 Features → Link Aggregation&lt;/span&gt;&lt;br&gt;&lt;/div&gt;&lt;div&gt;&lt;span style=&quot;background-color: transparent; color: light-dark(rgb(0, 0, 0), rgb(255, 255, 255));&quot;&gt;&lt;span style=&quot;white-space: pre;&quot;&gt;&#x9;&lt;/span&gt;&lt;span style=&quot;white-space: pre;&quot;&gt;&#x9;&lt;/span&gt;-&amp;nbsp;&lt;/span&gt;&lt;span style=&quot;background-color: transparent; color: light-dark(rgb(0, 0, 0), rgb(255, 255, 255));&quot;&gt;Enable&amp;nbsp;&lt;/span&gt;&lt;strong style=&quot;background-color: transparent; color: light-dark(rgb(0, 0, 0), rgb(255, 255, 255));&quot; data-end=&quot;1605&quot; data-start=&quot;1590&quot;&gt;LAG Group 1&lt;/strong&gt;&lt;span style=&quot;background-color: transparent; color: light-dark(rgb(0, 0, 0), rgb(255, 255, 255));&quot;&gt;&lt;br&gt;&lt;/span&gt;&lt;/div&gt;&lt;div&gt;&lt;strong style=&quot;background-color: transparent; color: light-dark(rgb(0, 0, 0), rgb(255, 255, 255));&quot; data-end=&quot;1605&quot; data-start=&quot;1590&quot;&gt;&lt;span style=&quot;white-space: pre;&quot;&gt;&#x9;&lt;/span&gt;&lt;span style=&quot;white-space: pre;&quot;&gt;&#x9;&lt;/span&gt;-&amp;nbsp;&lt;span style=&quot;background-color: transparent; color: light-dark(rgb(0, 0, 0), rgb(255, 255, 255)); font-weight: normal;&quot;&gt;Add&amp;nbsp;&lt;/span&gt;&lt;strong style=&quot;background-color: transparent; color: light-dark(rgb(0, 0, 0), rgb(255, 255, 255));&quot; data-end=&quot;1633&quot; data-start=&quot;1612&quot;&gt;Port 1 and Port 2&lt;/strong&gt;&lt;span style=&quot;background-color: transparent; color: light-dark(rgb(0, 0, 0), rgb(255, 255, 255)); font-weight: normal;&quot;&gt;&amp;nbsp;to the group&lt;/span&gt;&lt;br&gt;&lt;/strong&gt;&lt;/div&gt;&lt;div&gt;&lt;strong style=&quot;background-color: transparent; color: light-dark(rgb(0, 0, 0), rgb(255, 255, 255));&quot; data-end=&quot;1605&quot; data-start=&quot;1590&quot;&gt;&lt;span style=&quot;background-color: transparent; color: light-dark(rgb(0, 0, 0), rgb(255, 255, 255)); font-weight: normal;&quot;&gt;&lt;span style=&quot;white-space: pre;&quot;&gt;&#x9;&lt;/span&gt;&lt;span style=&quot;white-space: pre;&quot;&gt;&#x9;&lt;/span&gt;-&amp;nbsp;&lt;/span&gt;&lt;strong style=&quot;background-color: transparent; color: light-dark(rgb(0, 0, 0), rgb(255, 255, 255));&quot; data-end=&quot;1661&quot; data-start=&quot;1649&quot;&gt;LAG Type&lt;/strong&gt;&lt;span style=&quot;background-color: transparent; color: light-dark(rgb(0, 0, 0), rgb(255, 255, 255)); font-weight: normal;&quot;&gt;: Choose&amp;nbsp;&lt;/span&gt;&lt;code style=&quot;background-color: transparent; color: light-dark(rgb(0, 0, 0), rgb(255, 255, 255)); font-weight: normal;&quot; data-end=&quot;1676&quot; data-start=&quot;1670&quot;&gt;LACP&lt;/code&gt;&lt;span style=&quot;background-color: transparent; color: light-dark(rgb(0, 0, 0), rgb(255, 255, 255)); font-weight: normal;&quot;&gt;&amp;nbsp;if your CSS326 is using&amp;nbsp;&lt;/span&gt;&lt;strong style=&quot;background-color: transparent; color: light-dark(rgb(0, 0, 0), rgb(255, 255, 255));&quot; data-end=&quot;1712&quot; data-start=&quot;1701&quot;&gt;802.3ad&lt;/strong&gt;&lt;span style=&quot;background-color: transparent; color: light-dark(rgb(0, 0, 0), rgb(255, 255, 255)); font-weight: normal;&quot;&gt;, otherwise choose&amp;nbsp;&lt;/span&gt;&lt;code style=&quot;background-color: transparent; color: light-dark(rgb(0, 0, 0), rgb(255, 255, 255)); font-weight: normal;&quot; data-end=&quot;1739&quot; data-start=&quot;1731&quot;&gt;Static&lt;/code&gt;&lt;/strong&gt;&lt;/div&gt;&lt;/div&gt;&lt;div&gt;&lt;br&gt;&lt;/div&gt;&lt;div&gt;5. Management VLAN&lt;/div&gt;&lt;div&gt;&lt;span style=&quot;white-space: pre;&quot;&gt;&#x9;&lt;/span&gt;-&amp;nbsp;&lt;span style=&quot;background-color: transparent; color: light-dark(rgb(0, 0, 0), rgb(255, 255, 255));&quot;&gt;Add VLAN 10 → tagged on ports 1 and 2&lt;/span&gt;&lt;br&gt;&lt;/div&gt;&lt;div&gt;&lt;span style=&quot;background-color: transparent; color: light-dark(rgb(0, 0, 0), rgb(255, 255, 255));&quot;&gt;&lt;span style=&quot;white-space: pre;&quot;&gt;&#x9;&lt;/span&gt;-&amp;nbsp;&lt;/span&gt;&lt;span style=&quot;background-color: transparent; color: light-dark(rgb(0, 0, 0), rgb(255, 255, 255));&quot;&gt;Set management VLAN to 10 under:&lt;/span&gt;&lt;span style=&quot;background-color: transparent; color: light-dark(rgb(0, 0, 0), rgb(255, 255, 255));&quot;&gt;&lt;br&gt;&lt;/span&gt;&lt;/div&gt;&lt;div&gt;&lt;span style=&quot;background-color: transparent; color: light-dark(rgb(0, 0, 0), rgb(255, 255, 255));&quot;&gt;&lt;span style=&quot;white-space: pre;&quot;&gt;&#x9;&lt;/span&gt;&lt;span style=&quot;white-space: pre;&quot;&gt;&#x9;&lt;/span&gt;-&amp;nbsp;&lt;/span&gt;&lt;span style=&quot;background-color: transparent; color: light-dark(rgb(0, 0, 0), rgb(255, 255, 255));&quot;&gt;System → System Info → Management VLAN&lt;/span&gt;&lt;span style=&quot;background-color: transparent; color: light-dark(rgb(0, 0, 0), rgb(255, 255, 255));&quot;&gt;&lt;br&gt;&lt;/span&gt;&lt;/div&gt;&lt;div&gt;&lt;span style=&quot;background-color: transparent; color: light-dark(rgb(0, 0, 0), rgb(255, 255, 255));&quot;&gt;&lt;br&gt;&lt;/span&gt;&lt;/div&gt;&lt;div&gt;&lt;span style=&quot;background-color: transparent; color: light-dark(rgb(0, 0, 0), rgb(255, 255, 255));&quot;&gt;&lt;br&gt;&lt;/span&gt;&lt;/div&gt;&lt;div&gt;6. Bridge Priority Settings&lt;/div&gt;&lt;div&gt;&lt;span style=&quot;white-space: pre;&quot;&gt;&#x9;&lt;/span&gt;- Spanning Tree -&amp;gt; Global config&lt;br&gt;&lt;/div&gt;&lt;div&gt;&lt;span style=&quot;white-space: pre;&quot;&gt;&#x9;&lt;/span&gt;&lt;span style=&quot;white-space: pre;&quot;&gt;&#x9;&lt;/span&gt;- enable RSTP and set brigde priority : 49152 (or higher)&lt;br&gt;&lt;/div&gt;&lt;div&gt;&lt;span style=&quot;white-space: pre;&quot;&gt;&#x9;&lt;/span&gt;- Spannting tree -&amp;gt; Port Config&lt;br&gt;&lt;/div&gt;&lt;div&gt;&lt;span style=&quot;white-space: pre;&quot;&gt;&#x9;&lt;/span&gt;&lt;span style=&quot;white-space: pre;&quot;&gt;&#x9;&lt;/span&gt;-&amp;nbsp;&lt;span style=&quot;background-color: transparent; color: light-dark(rgb(0, 0, 0), rgb(255, 255, 255));&quot;&gt;Ensure &lt;/span&gt;&lt;strong style=&quot;background-color: transparent; color: light-dark(rgb(0, 0, 0), rgb(255, 255, 255));&quot; data-end=&quot;1970&quot; data-start=&quot;1939&quot;&gt;all trunk ports and uplinks&lt;/strong&gt;&lt;span style=&quot;background-color: transparent; color: light-dark(rgb(0, 0, 0), rgb(255, 255, 255));&quot;&gt; are RSTP-enabled&lt;/span&gt;&lt;br&gt;&lt;/div&gt;&lt;div&gt;&lt;span style=&quot;background-color: transparent; color: light-dark(rgb(0, 0, 0), rgb(255, 255, 255));&quot;&gt;&lt;span style=&quot;white-space: pre;&quot;&gt;&#x9;&lt;/span&gt;&lt;span style=&quot;white-space: pre;&quot;&gt;&#x9;&lt;/span&gt;-&amp;nbsp;&lt;/span&gt;&lt;span style=&quot;background-color: transparent; color: light-dark(rgb(0, 0, 0), rgb(255, 255, 255));&quot;&gt;Edge ports (user devices) → Enable &lt;/span&gt;&lt;strong style=&quot;background-color: transparent; color: light-dark(rgb(0, 0, 0), rgb(255, 255, 255));&quot; data-end=&quot;2041&quot; data-start=&quot;2028&quot;&gt;Edge Port&lt;/strong&gt;&lt;span style=&quot;background-color: transparent; color: light-dark(rgb(0, 0, 0), rgb(255, 255, 255));&quot;&gt; setting&lt;/span&gt;&lt;span style=&quot;background-color: transparent; color: light-dark(rgb(0, 0, 0), rgb(255, 255, 255));&quot;&gt;&lt;br&gt;&lt;/span&gt;&lt;/div&gt;&lt;div&gt;&lt;strong style=&quot;background-color: transparent; color: light-dark(rgb(0, 0, 0), rgb(255, 255, 255));&quot; data-end=&quot;1605&quot; data-start=&quot;1590&quot;&gt;&lt;code style=&quot;background-color: transparent; color: light-dark(rgb(0, 0, 0), rgb(255, 255, 255)); font-weight: normal;&quot; data-end=&quot;1739&quot; data-start=&quot;1731&quot;&gt;&lt;br&gt;&lt;/code&gt;&lt;/strong&gt;&lt;/div&gt;" style="text;strokeColor=none;fillColor=none;html=1;align=left;verticalAlign=top;whiteSpace=wrap;rounded=0;fontSize=10;movable=0;resizable=0;rotatable=0;deletable=0;editable=0;locked=1;connectable=0;" parent="1" vertex="1">
          <mxGeometry x="956" y="1740" width="457" height="425" as="geometry" />
        </mxCell>
        <mxCell id="llA-XZX_0WmRFSfMZyS1-39" value="" style="line;strokeWidth=4;html=1;perimeter=backbonePerimeter;points=[];outlineConnect=0;movable=0;resizable=0;rotatable=0;deletable=0;editable=0;locked=1;connectable=0;" parent="1" vertex="1">
          <mxGeometry x="940" y="1671" width="754" height="10" as="geometry" />
        </mxCell>
        <mxCell id="WInVJFaOnmFh0SODwC94-2" value="&lt;div&gt;/interface vrrp&lt;/div&gt;&lt;div&gt;add interface=vlan99-trunk name=vrrp1 vrid=10 priority=100 authentication=pass password=&quot;Dirga99(&quot;&lt;/div&gt;&lt;div&gt;&lt;br&gt;&lt;/div&gt;&lt;div&gt;&lt;div&gt;&lt;div&gt;/ip address&lt;/div&gt;&lt;div&gt;add address=192.168.10.1/24 interface=vlan10-management&amp;nbsp;comment=&quot;Gateway VLAN10&quot;&lt;/div&gt;&lt;/div&gt;&lt;div&gt;&lt;div&gt;add address=192.168.20.1/24 interface=vlan20-server&lt;/div&gt;&lt;div&gt;add address=192.168.30.1/24 interface=vlan30-staff&lt;/div&gt;&lt;div&gt;add address=192.168.50.1/24 interface=vlan50-iot&lt;/div&gt;&lt;/div&gt;&lt;div&gt;add address=192.168.40.1/24 interface=vlan40-guest&lt;/div&gt;&lt;div&gt;add address=192.168.99.2/24 interface=vlan99-trunk comment=&quot;CRS310 IP on VLAN99 trunk&quot;&lt;/div&gt;&lt;div&gt;add address=192.168.99.254/32 interface=vrrp1 comment=&quot;Virtual Gateway IP (VRRP shared)&quot;&lt;/div&gt;&lt;/div&gt;&lt;div&gt;&lt;br&gt;&lt;/div&gt;&lt;div&gt;&lt;div&gt;&lt;div&gt;/ip dns&lt;/div&gt;&lt;div&gt;set servers=8.8.8.8,1.1.1.1 allow-remote-requests=no&lt;/div&gt;&lt;/div&gt;&lt;div&gt;&lt;br&gt;&lt;/div&gt;&lt;div&gt;&lt;div&gt;/ip firewall filter&lt;/div&gt;&lt;div&gt;add chain=input action=accept protocol=icmp comment=&quot;Allow ping&quot;&lt;/div&gt;&lt;/div&gt;&lt;div&gt;add chain=input action=accept in-interface-list=LAN src-address=192.168.10.0/24 comment=&quot;Allow Management VLAN10&quot;&lt;/div&gt;&lt;div&gt;&lt;div&gt;add chain=input action=drop src-address=192.168.20.0/24 comment=&quot;Drop input from VLAN20 (Server)&quot; (disabled)&lt;/div&gt;&lt;div&gt;add chain=input action=drop src-address=192.168.30.0/24 comment=&quot;Drop input from VLAN30 (Staff)&quot;&amp;nbsp;&lt;span style=&quot;background-color: transparent; color: light-dark(rgb(0, 0, 0), rgb(255, 255, 255));&quot;&gt;(disabled)&lt;/span&gt;&lt;/div&gt;&lt;div&gt;add chain=input action=drop src-address=192.168.40.0/24 comment=&quot;Drop input from VLAN40 (Guest)&quot;&amp;nbsp;&lt;span style=&quot;background-color: transparent; color: light-dark(rgb(0, 0, 0), rgb(255, 255, 255));&quot;&gt;(disabled)&lt;/span&gt;&lt;/div&gt;&lt;div&gt;add chain=input action=drop src-address=192.168.50.0/24 comment=&quot;Drop input from VLAN50 (IoT)&quot;&amp;nbsp;&lt;span style=&quot;background-color: transparent; color: light-dark(rgb(0, 0, 0), rgb(255, 255, 255));&quot;&gt;(disabled)&lt;/span&gt;&lt;/div&gt;&lt;/div&gt;&lt;div&gt;add chain=input protocol=tcp dst-port=8291 connection-state=new log=yes log-prefix=&quot;BruteForce Attempt&quot;&lt;/div&gt;&lt;div&gt;&lt;div&gt;add chain=input protocol=tcp dst-port=8291 connection-state=new src-address-list=blacklist action=drop comment=&quot;Block brute-force Winbox&quot;&lt;/div&gt;&lt;div&gt;add chain=input protocol=tcp dst-port=8291 connection-state=new action=add-src-to-address-list address-list=blacklist address-list-timeout=1d comment=&quot;Detect brute-force Winbox&quot;&lt;/div&gt;&lt;/div&gt;&lt;div&gt;&lt;div&gt;add chain=input protocol=tcp dst-port=22 src-address-list=blacklist action=drop comment=&quot;Block brute-force SSH&quot;&lt;/div&gt;&lt;div&gt;add chain=input protocol=tcp dst-port=22 connection-state=new action=add-src-to-address-list address-list=blacklist address-list-timeout=1d comment=&quot;Detect brute-force SSH&quot;&lt;/div&gt;&lt;/div&gt;&lt;div&gt;add chain=input in-interface-list=LAN action=drop comment=&quot;Drop all other LAN input&quot;&lt;/div&gt;&lt;div&gt;add chain=input action=drop in-interface-list=!loopback log=yes log-prefix=&quot;DROP CRS310 &quot;&lt;/div&gt;&lt;div&gt;&lt;div&gt;add chain=forward src-address=192.168.50.0/24 dst-address=192.168.30.0/24 action=drop comment=&quot;Block IoT to Staff&quot;&lt;/div&gt;&lt;div&gt;add chain=forward src-address=192.168.50.0/24 dst-address=192.168.10.0/24 action=drop comment=&quot;Block IoT to Management&quot;&lt;/div&gt;&lt;/div&gt;&lt;div&gt;&lt;br&gt;&lt;/div&gt;&lt;div&gt;&lt;div&gt;/ip route&lt;/div&gt;&lt;div&gt;add dst-address=0.0.0.0/0 gateway=192.168.99.254 comment=&quot;Default route via VRRP gateway&quot;&lt;/div&gt;&lt;/div&gt;&lt;div&gt;&lt;br&gt;&lt;/div&gt;&lt;div&gt;&lt;div&gt;/ip pool&lt;/div&gt;&lt;div&gt;add name=pool30 ranges=192.168.30.100-192.168.30.200&lt;/div&gt;&lt;div&gt;add name=pool40 ranges=192.168.40.100-192.168.40.200&lt;/div&gt;&lt;div&gt;add name=pool50 ranges=192.168.50.100-192.168.50.200&lt;/div&gt;&lt;div&gt;&lt;br&gt;&lt;/div&gt;&lt;div&gt;/ip dhcp-server&lt;/div&gt;&lt;div&gt;add name=dhcp30 interface=vlan30-staff address-pool=pool30 disabled=no&lt;/div&gt;&lt;div&gt;add name=dhcp40 interface=vlan40-guest address-pool=pool40 disabled=no&lt;/div&gt;&lt;div&gt;add name=dhcp50 interface=vlan50-iot address-pool=pool50 disabled=no&lt;/div&gt;&lt;div&gt;&lt;br&gt;&lt;/div&gt;&lt;div&gt;/ip dhcp-server network&lt;/div&gt;&lt;div&gt;add address=192.168.30.0/24 gateway=192.168.30.1 dns-server=8.8.8.8&lt;/div&gt;&lt;div&gt;add address=192.168.40.0/24 gateway=192.168.40.1 dns-server=8.8.8.8&lt;/div&gt;&lt;div&gt;add address=192.168.50.0/24 gateway=192.168.50.1 dns-server=8.8.8.8&lt;/div&gt;&lt;/div&gt;&lt;div&gt;&lt;br&gt;&lt;/div&gt;&lt;div&gt;&lt;div&gt;/ip service&lt;/div&gt;&lt;div&gt;set winbox address=192.168.10.0/24&lt;/div&gt;&lt;div&gt;set api disabled=yes&lt;/div&gt;&lt;div&gt;set api-ssl disabled=yes&lt;/div&gt;&lt;/div&gt;&lt;div&gt;&lt;br style=&quot;font-size: 10px; text-align: left;&quot;&gt;&lt;/div&gt;&lt;/div&gt;" style="text;strokeColor=none;fillColor=none;html=1;align=left;verticalAlign=top;whiteSpace=wrap;rounded=0;fontSize=10;movable=0;resizable=0;rotatable=0;deletable=0;editable=0;locked=1;connectable=0;" parent="1" vertex="1">
          <mxGeometry x="392.25" y="1201" width="548" height="492" as="geometry" />
        </mxCell>
        <mxCell id="WInVJFaOnmFh0SODwC94-4" value="" style="endArrow=none;html=1;rounded=0;fontSize=12;startSize=8;endSize=8;curved=1;movable=0;resizable=0;rotatable=0;deletable=0;editable=0;locked=1;connectable=0;" parent="1" edge="1">
          <mxGeometry width="50" height="50" relative="1" as="geometry">
            <mxPoint x="373" y="2180" as="sourcePoint" />
            <mxPoint x="363" y="1120" as="targetPoint" />
            <Array as="points">
              <mxPoint x="369" y="1310" />
            </Array>
          </mxGeometry>
        </mxCell>
        <mxCell id="kk2kOqFG70nNpjR5aIwO-1" value="Redudancy RSTP&lt;br&gt;LAG (802.3ad)" style="text;strokeColor=none;fillColor=none;html=1;align=center;verticalAlign=middle;whiteSpace=wrap;rounded=0;fontSize=10;movable=0;resizable=0;rotatable=0;deletable=0;editable=0;locked=1;connectable=0;" parent="1" vertex="1">
          <mxGeometry x="1439" y="1298" width="90" height="30" as="geometry" />
        </mxCell>
        <mxCell id="kk2kOqFG70nNpjR5aIwO-2" value="Redudancy RSTP&lt;br&gt;LAG (802.3ad)" style="text;strokeColor=none;fillColor=none;html=1;align=center;verticalAlign=middle;whiteSpace=wrap;rounded=0;fontSize=10;movable=0;resizable=0;rotatable=0;deletable=0;editable=0;locked=1;connectable=0;" parent="1" vertex="1">
          <mxGeometry x="1439" y="1346" width="90" height="30" as="geometry" />
        </mxCell>
        <mxCell id="-4Aig8r-hdrK75gPI3ws-1" value="" style="group;movable=0;resizable=0;rotatable=0;deletable=0;editable=0;locked=1;connectable=0;" parent="1" connectable="0" vertex="1">
          <mxGeometry x="1474" y="870" width="221" height="220" as="geometry" />
        </mxCell>
        <mxCell id="WuOIyLYNfGmpn-H2fmUs-54" value="" style="whiteSpace=wrap;html=1;aspect=fixed;strokeColor=#999797;fillColor=#999797;movable=1;resizable=1;rotatable=1;deletable=1;editable=1;locked=0;connectable=1;" parent="-4Aig8r-hdrK75gPI3ws-1" vertex="1">
          <mxGeometry width="220" height="220" as="geometry" />
        </mxCell>
        <mxCell id="WuOIyLYNfGmpn-H2fmUs-55" value="&lt;div&gt;&lt;b&gt;NOTE&lt;/b&gt;&lt;/div&gt;&lt;div&gt;&lt;b&gt;&lt;br&gt;&lt;/b&gt;&lt;/div&gt;WAN MAPPING&lt;div&gt;&amp;nbsp;- ether1 : ISP 1&lt;/div&gt;&lt;div&gt;&amp;nbsp;- ether2 : ISP 2&lt;/div&gt;&lt;div&gt;&lt;br&gt;&lt;/div&gt;&lt;div&gt;PCC Load Balancing&amp;nbsp;&lt;/div&gt;&lt;div&gt;&amp;nbsp;- Using Both-addresses : 2 for 50/50 split&lt;/div&gt;&lt;div&gt;&amp;nbsp;- Support failover via route distance&lt;/div&gt;&lt;div&gt;&lt;br&gt;&lt;/div&gt;" style="text;strokeColor=none;fillColor=none;html=1;align=left;verticalAlign=top;whiteSpace=wrap;rounded=0;fontSize=11;movable=1;resizable=1;rotatable=1;deletable=1;editable=1;locked=0;connectable=1;" parent="-4Aig8r-hdrK75gPI3ws-1" vertex="1">
          <mxGeometry x="1" width="220" height="220" as="geometry" />
        </mxCell>
      </root>
    </mxGraphModel>
  </diagram>
</mxfile>
